<svg xmlns="http://www.w3.org/2000/svg" width="27" height="27" viewBox="0 0 27 27">
    <path fill="#4B9FDD" fill-rule="nonzero" d="M19.643 25H4.847a.765.765 0 0 1-.765-.765V8.673H.765A.765.765 0 0 1 0 7.908V.765C0 .342.342 0 .765 0h7.143c.423 0 .765.342.765.765A3.83 3.83 0 0 0 12.5 4.592a3.833 3.833 0 0 0 3.75-3.061h-4.77a.765.765 0 1 1 0-1.531h5.612c.423 0 .765.342.765.765A5.363 5.363 0 0 1 12.5 6.122a5.365 5.365 0 0 1-5.303-4.591H1.531v5.612h3.316c.423 0 .765.342.765.765V23.47h13.266V7.91c0-.424.342-.766.765-.766h3.826V1.53h-2.806a.765.765 0 1 1 0-1.531h3.572c.423 0 .765.342.765.765v7.143a.765.765 0 0 1-.765.765h-3.827v15.562a.765.765 0 0 1-.765.765"/>
</svg>
