<svg xmlns="http://www.w3.org/2000/svg" width="25" height="25" viewBox="0 0 25 25">
    <path fill="#4B9FDD" fill-rule="nonzero" d="M22.75 20a.75.75 0 0 1 .75.75v2.5a.75.75 0 0 1-.75.75h-22a.75.75 0 0 1-.75-.75v-18a.75.75 0 0 1 .75-.75h4.5a.75.75 0 1 1 0 1.5H1.5v16.5H22v-1.75a.75.75 0 0 1 .75-.75zm-19-13h2.689l4.47-5.712a.75.75 0 0 1 1.067-.118l7 5.75a.74.74 0 0 1 .079.08h3.695a.75.75 0 0 1 .75.75v2a.75.75 0 1 1-1.5 0V8.5H3.75a.75.75 0 1 1 0-1.5zm7.867-4.183L8.343 7h8.367l-5.093-4.183zM15.25 15.25a1 1 0 1 1 2 0 1 1 0 0 1-2 0zm8.25 2.25V13h-7.136c-1.182 0-2.213.863-2.347 1.964A2.252 2.252 0 0 0 16.25 17.5h7.251zm.75-6a.75.75 0 0 1 .75.75v6a.75.75 0 0 1-.75.75h-8a3.753 3.753 0 0 1-2.808-1.264 3.767 3.767 0 0 1-.914-2.952c.227-1.872 1.877-3.284 3.836-3.284h7.886z"/>
</svg>
