<svg xmlns="http://www.w3.org/2000/svg" width="21" height="18" viewBox="0 0 21 18">
    <path fill="#9B9B9B" fill-rule="nonzero" d="M5.385 0a5.382 5.382 0 0 0-3.808 1.57 5.346 5.346 0 0 0 0 7.583l4.062 4.045 1.016 1.01L10.463 18l3.681-3.665 1.142-1.137 4.19-4.171a5.166 5.166 0 0 0 0-7.33A5.2 5.2 0 0 0 15.793.179a5.2 5.2 0 0 0-3.681 1.518l-1.396 1.39L9.193 1.57A5.381 5.381 0 0 0 5.385 0m0 1.227c1.097 0 2.13.427 2.908 1.202l1.523 1.516.9.897.901-.897 1.397-1.39a3.917 3.917 0 0 1 2.78-1.149c1.049 0 2.036.408 2.78 1.15a3.962 3.962 0 0 1 0 5.613l-4.188 4.17-1.143 1.138-2.78 2.768-2.908-2.895-1.015-1.01-4.062-4.045a4.14 4.14 0 0 1 0-5.866 4.095 4.095 0 0 1 2.907-1.202"/>
</svg>
