<svg xmlns="http://www.w3.org/2000/svg" width="25" height="23" viewBox="0 0 25 23">
    <path fill="#1A1A1A" fill-rule="nonzero" d="M6.411 0C4.771 0 3.13.67 1.878 2.007c-2.504 2.676-2.504 7.013 0 9.689l4.835 5.168 1.21 1.291L12.455 23l4.382-4.683 1.36-1.453 4.987-5.33c2.42-2.586 2.42-6.78 0-9.366-1.21-1.293-2.796-1.94-4.382-1.94-1.587 0-3.173.647-4.383 1.94l-1.662 1.776-1.813-1.937C9.693.669 8.052 0 6.41 0m0 1.568c1.306 0 2.535.545 3.461 1.535l1.814 1.938 1.072 1.146 1.072-1.146 1.663-1.776c.886-.947 2.061-1.468 3.31-1.468 1.248 0 2.424.521 3.31 1.468 1.85 1.977 1.85 5.195 0 7.173l-4.987 5.329-1.36 1.453-3.31 3.538-3.461-3.7-1.21-1.291-4.835-5.168c-1.934-2.067-1.934-5.429 0-7.496.927-.99 2.156-1.535 3.461-1.535"/>
</svg>
