<?xml version="1.0" encoding="UTF-8"?>
<svg width="47px" height="30px" viewBox="0 0 47 30" version="1.1" xmlns="http://www.w3.org/2000/svg" xmlns:xlink="http://www.w3.org/1999/xlink">
    <!-- Generator: Sketch 55.2 (78181) - https://sketchapp.com -->
    <title>icon/credit-card/amex</title>
    <desc>Created with Sketch.</desc>
    <g id="icon/credit-card/amex" stroke="none" stroke-width="1" fill="none" fill-rule="evenodd">
        <g id="NEW/icon/svg/amex-full" transform="translate(9.500000, 1.000000)">
            <g id="NEW/icon/credit-card/logo/amex-full">
                <g id="Group">
                    <path d="M27.1809524,17.4857143 L27.1809524,15.2571429 L27.8857143,15.2571429 L27.8857143,0.133333333 L0.133333333,0.133333333 L0.133333333,10.8 L0.838095238,9.92380952 L0.838095238,13.5809524 L0.133333333,13.5809524 L0.133333333,27.8666667 L27.8666667,27.8666667 L27.8666667,19.7904762 C27.8285714,19.8095238 27.2,19.8285714 27.1619048,19.8666667 L27.1619048,18.6666667 L27.1619048,17.4857143 L27.1809524,17.4857143 Z" id="Path" fill="#006FCF" fill-rule="nonzero"></path>
                    <path d="M27.8857143,19.8095238 L27.8857143,15.2761905 L27.6571429,15.2761905 L10.6857143,15.2761905 L10.247619,15.8857143 L9.80952381,15.2761905 L4.85714286,15.2761905 L4.85714286,20.1333333 L9.77142857,20.1333333 L10.2095238,19.5047619 L10.6666667,20.1333333 L13.752381,20.1333333 L13.752381,19.0857143 L13.7333333,19.0857143 C14.1142857,19.0857143 14.4571429,19.0095238 14.7809524,18.8952381 L14.7809524,20.1142857 L16.9333333,20.1142857 L16.9333333,19.4285714 L17.4857143,20.1333333 L26.8380952,20.1333333 C27.1047619,20.1333333 27.352381,20.0952381 27.5809524,20 C27.6571429,19.9428571 27.7714286,19.8666667 27.8857143,19.8095238 L27.8857143,19.8095238 Z M24.4761905,13.6 L26.5714286,13.6 L26.5714286,8.74285714 L24.3428571,8.74285714 L24.3428571,9.5047619 L23.847619,8.74285714 L21.9238095,8.74285714 L21.9238095,9.71428571 L21.4857143,8.74285714 L18.2857143,8.74285714 C18.1333333,8.74285714 18,8.74285714 17.8285714,8.76190476 C17.7142857,8.78095238 17.5809524,8.8 17.4666667,8.85714286 C17.3714286,8.87619048 17.2761905,8.93333333 17.2,8.95238095 C17.1047619,8.99047619 16.9904762,9.04761905 16.9142857,9.1047619 L16.9142857,8.95238095 L16.9142857,8.74285714 L6.45714286,8.74285714 L6.17142857,9.58095238 L5.88571429,8.74285714 L3.46666667,8.74285714 L3.46666667,9.73333333 L3.02857143,8.74285714 L1.02857143,8.74285714 L0.152380952,10.8 L0.152380952,13.1428571 L0.152380952,13.5809524 L1.56190476,13.5809524 L1.82857143,12.8761905 L2.32380952,12.8761905 L2.59047619,13.5809524 L13.4095238,13.5809524 L13.4095238,12.8761905 L13.9619048,13.5809524 L16.952381,13.5809524 L16.952381,13.4666667 L16.952381,13.2571429 C17.0285714,13.2952381 17.1047619,13.352381 17.2,13.3904762 C17.2952381,13.4285714 17.352381,13.4666667 17.447619,13.4857143 C17.5619048,13.5047619 17.6571429,13.5619048 17.7714286,13.5619048 C17.9619048,13.5809524 18.1142857,13.6 18.2666667,13.6 L20.0571429,13.6 L20.3238095,12.8952381 L20.8190476,12.8952381 L21.0857143,13.6 L24.0380952,13.6 L24.0380952,12.8761905 L24.4761905,13.6 L24.4761905,13.6 Z" id="Shape" fill="#FFFFFF" fill-rule="nonzero"></path>
                    <path d="M8.20952381,16.7238095 L8.20952381,16.0571429 L5.6,16.0571429 L5.6,19.3142857 L8.20952381,19.3142857 L8.20952381,18.6666667 L6.38095238,18.6666667 L6.38095238,18 L8.17142857,18 L8.17142857,17.3333333 L6.38095238,17.3333333 L6.38095238,16.7047619 L8.20952381,16.7238095 L8.20952381,16.7238095 Z M10.9333333,19.3333333 L11.9047619,19.3333333 L10.5904762,17.6761905 L11.8857143,16.0571429 L10.9333333,16.0571429 L10.1333333,17.1047619 L9.33333333,16.0571429 L8.36190476,16.0571429 L9.67619048,17.6952381 L8.38095238,19.3333333 L9.33333333,19.3333333 L10.1333333,18.2857143 L10.9333333,19.3333333 L10.9333333,19.3333333 Z M12.0952381,16.0571429 L12.0952381,19.3142857 L12.8952381,19.3142857 L12.8952381,18.2285714 L13.8666667,18.2285714 C14.5904762,18.2285714 15.0285714,17.752381 15.0285714,17.1428571 C15.0285714,16.4761905 14.5904762,16.0571429 13.8857143,16.0571429 L12.0952381,16.0571429 L12.0952381,16.0571429 Z M14.247619,17.1619048 C14.247619,17.3904762 14.1142857,17.5619048 13.847619,17.5619048 L12.9142857,17.5619048 L12.9142857,16.7619048 L13.847619,16.7619048 C14.0952381,16.7428571 14.247619,16.9333333 14.247619,17.1619048 L14.247619,17.1619048 Z M16.247619,18.152381 L16.6095238,18.152381 L17.5809524,19.3333333 L18.552381,19.3333333 L17.4666667,18.1333333 C18.0380952,18.0190476 18.3428571,17.6380952 18.3428571,17.1047619 C18.3428571,16.4952381 17.9047619,16.0571429 17.2,16.0571429 L15.4285714,16.0571429 L15.4285714,19.3142857 L16.2285714,19.3142857 L16.247619,18.152381 L16.247619,18.152381 Z M17.1428571,16.7238095 C17.4095238,16.7238095 17.5809524,16.9142857 17.5809524,17.1238095 C17.5809524,17.352381 17.4285714,17.5238095 17.1428571,17.5238095 L16.2095238,17.5238095 L16.2095238,16.7047619 L17.1428571,16.7238095 L17.1428571,16.7238095 Z M21.5238095,16.7238095 L21.5238095,16.0571429 L18.9142857,16.0571429 L18.9142857,19.3142857 L21.5238095,19.3142857 L21.5238095,18.6666667 L19.7142857,18.6666667 L19.7142857,18 L21.5047619,18 L21.5047619,17.3333333 L19.7142857,17.3333333 L19.7142857,16.7047619 L21.5238095,16.7238095 L21.5238095,16.7238095 Z M23.6761905,18.6666667 L22,18.6666667 L22,19.3333333 L23.6571429,19.3333333 C24.3619048,19.3333333 24.8,18.8952381 24.8,18.2857143 C24.8,17.6952381 24.4190476,17.352381 23.7714286,17.352381 L23.0285714,17.352381 C22.8380952,17.352381 22.7047619,17.2380952 22.7047619,17.0285714 C22.7047619,16.8190476 22.8380952,16.7047619 23.0285714,16.7047619 L24.4571429,16.7047619 L24.7428571,16.0380952 L23.0666667,16.0380952 C22.3619048,16.0380952 21.9238095,16.4761905 21.9238095,17.0666667 C21.9238095,17.6761905 22.3238095,18.0190476 22.952381,18.0190476 L23.6952381,18.0190476 C23.8857143,18.0190476 24.0190476,18.1333333 24.0190476,18.3428571 C24.0190476,18.5333333 23.8857143,18.6666667 23.6761905,18.6666667 L23.6761905,18.6666667 Z M26.8,18.6666667 L25.1238095,18.6666667 L25.1238095,19.3333333 L26.7809524,19.3333333 C27.4857143,19.3333333 27.9238095,18.8952381 27.9238095,18.2857143 C27.9238095,17.6952381 27.5428571,17.352381 26.8952381,17.352381 L26.152381,17.352381 C25.9619048,17.352381 25.8285714,17.2380952 25.8285714,17.0285714 C25.8285714,16.8190476 25.9619048,16.7047619 26.152381,16.7047619 L27.5809524,16.7047619 L27.8666667,16.0380952 L26.1904762,16.0380952 C25.4857143,16.0380952 25.047619,16.4761905 25.047619,17.0666667 C25.047619,17.6761905 25.447619,18.0190476 26.0761905,18.0190476 L26.8190476,18.0190476 C27.0095238,18.0190476 27.1428571,18.1333333 27.1428571,18.3428571 C27.1238095,18.5333333 26.9904762,18.6666667 26.8,18.6666667 L26.8,18.6666667 Z" id="Shape" fill="#006FCF" fill-rule="nonzero"></path>
                    <path d="M3.08571429,12.8190476 L3.96190476,12.8190476 L2.55238095,9.56190476 L1.5047619,9.56190476 L0.0952380952,12.8190476 L0.933333333,12.8190476 L1.2,12.1142857 L2.76190476,12.1142857 L3.08571429,12.8190476 L3.08571429,12.8190476 Z M1.79047619,10.7619048 L2.03809524,10.152381 L2.28571429,10.7619048 L2.57142857,11.4857143 L1.52380952,11.4857143 L1.79047619,10.7619048 L1.79047619,10.7619048 Z M4.93333333,10.5714286 L4.91428571,9.6952381 L5.82857143,12.8 L6.53333333,12.8 L7.44761905,9.6952381 L7.42857143,10.552381 L7.42857143,12.8 L8.19047619,12.8 L8.19047619,9.52380952 L6.8,9.52380952 L6.19047619,11.8285714 L5.56190476,9.52380952 L4.17142857,9.52380952 L4.17142857,12.7809524 L4.93333333,12.7809524 L4.93333333,10.5714286 L4.93333333,10.5714286 Z M11.4285714,10.2095238 L11.4285714,9.54285714 L8.81904762,9.54285714 L8.81904762,12.8 L11.4285714,12.8 L11.4285714,12.1333333 L9.6,12.1333333 L9.6,11.4666667 L11.3904762,11.4666667 L11.3904762,10.8 L9.6,10.8 L9.6,10.1714286 L11.4285714,10.2095238 L11.4285714,10.2095238 Z M12.8,11.6380952 L13.1619048,11.6380952 L14.1333333,12.8190476 L15.1047619,12.8190476 L14.0190476,11.6190476 C14.5904762,11.5047619 14.8952381,11.1238095 14.8952381,10.5904762 C14.8952381,9.98095238 14.4571429,9.54285714 13.752381,9.54285714 L11.9809524,9.54285714 L11.9809524,12.8 L12.7809524,12.8 L12.8,11.6380952 L12.8,11.6380952 Z M13.6952381,10.2095238 C13.9619048,10.2095238 14.1333333,10.4 14.1333333,10.6095238 C14.1333333,10.8380952 13.9809524,11.0095238 13.6952381,11.0095238 L12.7619048,11.0095238 L12.7619048,10.1904762 L13.6952381,10.2095238 L13.6952381,10.2095238 Z M15.352381,12.8190476 L16.152381,12.8190476 L16.152381,11.3904762 L16.152381,9.56190476 L15.352381,9.56190476 L15.352381,11.3714286 L15.352381,12.8190476 L15.352381,12.8190476 Z M18.152381,12.8190476 L18.1904762,12.8190476 L18.5142857,12.1142857 L18.2666667,12.1142857 C17.7142857,12.1142857 17.4095238,11.7714286 17.4095238,11.2 L17.4095238,11.1619048 C17.4095238,10.647619 17.6952381,10.247619 18.247619,10.247619 L19.0857143,10.247619 L19.0857143,9.54285714 L18.1714286,9.54285714 C17.1809524,9.54285714 16.6095238,10.2285714 16.6095238,11.1619048 L16.6095238,11.2 C16.6285714,12.1904762 17.2,12.8 18.152381,12.8190476 L18.152381,12.8190476 Z M21.5809524,12.8190476 L22.4571429,12.8190476 L21.047619,9.56190476 L20,9.56190476 L18.5904762,12.8190476 L19.4285714,12.8190476 L19.6952381,12.1142857 L21.2571429,12.1142857 L21.5809524,12.8190476 L21.5809524,12.8190476 Z M20.2666667,10.7619048 L20.4952381,10.152381 L20.7238095,10.7619048 L21.0095238,11.4857143 L19.9619048,11.4857143 L20.2666667,10.7619048 L20.2666667,10.7619048 Z M23.3904762,10.8380952 L23.3904762,10.5714286 L23.5428571,10.8380952 L24.7809524,12.7809524 L25.6952381,12.7809524 L25.6952381,9.52380952 L24.9333333,9.52380952 L24.9333333,11.4095238 L24.9333333,11.6571429 L24.8,11.4095238 L23.5619048,9.52380952 L22.6095238,9.52380952 L22.6095238,12.7809524 L23.3714286,12.7809524 L23.3714286,10.8380952 L23.3904762,10.8380952 L23.3904762,10.8380952 Z" id="Shape" fill="#006FCF" fill-rule="nonzero"></path>
                </g>
            </g>
        </g>
    </g>
</svg>