<?xml version="1.0" encoding="UTF-8"?>
<svg width="40px" height="40px" viewBox="0 0 40 40" version="1.1" xmlns="http://www.w3.org/2000/svg" xmlns:xlink="http://www.w3.org/1999/xlink">
    <!-- Generator: Sketch 55 (78076) - https://sketchapp.com -->
    <title>icons/at-icon</title>
    <desc>Created with Sketch.</desc>
    <g id="Page-1" stroke="none" stroke-width="1" fill="none" fill-rule="evenodd">
        <g id="email-sign-up" transform="translate(-10.000000, -10.000000)" fill="#FFFFFF" fill-rule="nonzero">
            <g id="icons/at-icon" transform="translate(9.000000, 10.000000)">
                <path d="M27.87856,22.11824 C27.31296,23.95584 26.06496,25.46304 24.36576,26.36224 C22.66736,27.26144 20.71856,27.44384 18.88176,26.87904 C15.08896,25.71104 12.95296,21.67504 14.12096,17.88144 C14.68656,16.04384 15.93376,14.53664 17.63296,13.63744 C18.68576,13.08144 19.83296,12.79904 20.99136,12.79904 C21.70256,12.79904 22.41856,12.90544 23.11776,13.12064 C26.91056,14.28864 29.04656,18.32464 27.87856,22.11824 M34.59936,23.99984 C32.39936,23.99984 30.60976,22.21424 30.60096,20.01584 C30.60576,18.46304 30.22976,16.92224 29.48336,15.51104 C28.28416,13.24544 26.27376,11.58144 23.82416,10.82704 C21.37296,10.07264 18.77616,10.31744 16.51056,11.51664 C14.24496,12.71584 12.58176,14.72544 11.82736,17.17504 C11.07216,19.62544 11.31776,22.22304 12.51616,24.48864 C13.71536,26.75424 15.72576,28.41824 18.17536,29.17264 C19.10816,29.45984 20.06176,29.60224 21.01136,29.60224 C22.55536,29.60224 24.08576,29.22544 25.48896,28.48304 C27.35136,27.49744 28.79696,25.95824 29.67536,24.08224 C30.85056,25.49664 32.62176,26.39984 34.59936,26.39984 C38.12896,26.39984 40.99936,23.52864 40.99936,19.99984 C40.99936,14.65744 38.91936,9.63504 35.14176,5.85744 C31.36336,2.08064 26.34176,-0.00016 20.99936,-0.00016 C15.65776,-0.00016 10.63536,2.08064 6.85776,5.85744 C3.08016,9.63504 0.99936,14.65744 0.99936,19.99984 C0.99936,25.34224 3.08016,30.36464 6.85776,34.14224 C10.63536,37.91904 15.65776,39.99984 20.99936,39.99984 C26.34176,39.99984 31.36336,37.91904 35.14176,34.14224 C35.61056,33.67344 35.61056,32.91424 35.14176,32.44544 C34.67296,31.97664 33.91376,31.97664 33.44496,32.44544 C30.12096,35.76864 25.70016,37.59984 20.99936,37.59984 C16.29856,37.59984 11.87856,35.76864 8.55456,32.44544 C5.22976,29.12064 3.39936,24.70144 3.39936,19.99984 C3.39936,15.29904 5.22976,10.87904 8.55456,7.55424 C11.87856,4.23104 16.29856,2.39984 20.99936,2.39984 C25.70016,2.39984 30.12096,4.23104 33.44496,7.55424 C36.76896,10.87904 38.59936,15.29904 38.59936,19.99984 C38.59936,22.20544 36.80496,23.99984 34.59936,23.99984" id="Fill-1"></path>
            </g>
        </g>
    </g>
</svg>