<svg xmlns="http://www.w3.org/2000/svg" width="21" height="25" viewBox="0 0 21 25">
    <path fill="#1A1A1A" fill-rule="nonzero" d="M11.73 0c3.02 0 5.475 2.403 5.475 5.357V8.93c0 .422-.35.765-.782.765a.774.774 0 0 1-.782-.765V7.143h-3.91a.774.774 0 0 1-.782-.765c0-.423.35-.766.782-.766h3.91v-.255c0-2.11-1.754-3.826-3.91-3.826-2.157 0-3.91 1.716-3.91 3.826V8.93c0 .422-.35.765-.783.765a.774.774 0 0 1-.782-.765V7.143H4.57L1.71 23.469h8.978c.432 0 .782.343.782.766 0 .422-.35.765-.782.765H.782c-.23 0-.449-.1-.597-.272a.754.754 0 0 1-.174-.623L3.14 6.248a.778.778 0 0 1 .771-.636h2.346v-.255C6.256 2.403 8.712 0 11.731 0zm7.64 5.508c.41-.065.8.22.862.63l.76 5a.751.751 0 0 1-.752.862.757.757 0 0 1-.75-.639l-.759-5a.752.752 0 0 1 .638-.853z"/>
</svg>
