<svg xmlns="http://www.w3.org/2000/svg" width="23" height="25" viewBox="0 0 23 25">
    <path fill="#439ad4" fill-rule="nonzero" d="M22.989 24.105L19.922 6.248a.766.766 0 1 0-1.511.26l2.913 16.961H1.676L4.48 7.143h1.653v1.786a.766.766 0 0 0 1.533 0V5.357a3.834 3.834 0 0 1 7.667 0v.255H11.5a.766.766 0 1 0 0 1.53h3.833V8.93a.766.766 0 0 0 1.533 0V5.357C16.866 2.403 14.46 0 11.5 0 8.54 0 6.133 2.403 6.133 5.357v.255h-2.3a.766.766 0 0 0-.755.636L.01 24.105A.764.764 0 0 0 .766 25h21.467a.767.767 0 0 0 .756-.895"/>
</svg>
