<?xml version="1.0" encoding="UTF-8"?>
<svg width="21px" height="25px" viewBox="0 0 21 25" version="1.1" xmlns="http://www.w3.org/2000/svg" xmlns:xlink="http://www.w3.org/1999/xlink">
    <!-- Generator: Sketch 58 (84663) - https://sketch.com -->
    <title>icons/bag-filled-0 copy</title>
    <desc>Created with Sketch.</desc>
    <g id="icons/bag-filled-0-copy" stroke="none" stroke-width="1" fill="none" fill-rule="evenodd">
        <path d="M11.5908576,0 C14.5735848,0 16.9999485,2.40306122 16.9999485,5.35714286 L16.9999485,5.35714286 L16.9999485,8.92857143 C16.9999485,9.35102041 16.6537667,9.69387755 16.2272212,9.69387755 C15.8006758,9.69387755 15.4544939,9.35102041 15.4544939,8.92857143 L15.4544939,8.92857143 L15.4544939,7.14285714 L11.5908576,7.14285714 C11.1643121,7.14285714 10.8181303,6.8 10.8181303,6.37755102 C10.8181303,5.95510204 11.1643121,5.6122449 11.5908576,5.6122449 L11.5908576,5.6122449 L15.4544939,5.6122449 L15.4544939,5.35714286 C15.4544939,3.24693878 13.7215242,1.53061224 11.5908576,1.53061224 C9.46019091,1.53061224 7.72722121,3.24693878 7.72722121,5.35714286 L7.72722121,5.35714286 L7.72722121,8.92857143 C7.72722121,9.35102041 7.38103939,9.69387755 6.95449394,9.69387755 C6.52794848,9.69387755 6.18176667,9.35102041 6.18176667,8.92857143 L6.18176667,8.92857143 L6.18176667,7.14285714 L4.51525152,7.14285714 L1.6891303,23.4693878 L12.5605545,23.4693878 C12.9871,23.4693878 13.3332818,23.8122449 13.3332818,24.2346939 C13.3332818,24.6571429 12.9871,25 12.5605545,25 L12.5605545,25 L0.772675758,25 C0.544978788,25 0.329130303,24.9005102 0.182312121,24.7280612 C0.0349787879,24.5556122 -0.0273545455,24.3280612 0.0107666667,24.105102 L0.0107666667,24.105102 L3.10167576,6.24795918 C3.1660697,5.88061224 3.48752424,5.6122449 3.86358485,5.6122449 L3.86358485,5.6122449 L6.18176667,5.6122449 L6.18176667,5.35714286 C6.18176667,2.40306122 8.6081303,0 11.5908576,0 Z M19.13865,5.50815 C19.54465,5.44315 19.93015,5.72865 19.99165,6.13865 L19.99165,6.13865 L20.74165,11.13865 C20.80315,11.54815 20.52115,11.93015 20.11115,11.99165 C20.07365,11.99765 20.03615,12.00015 19.99915,12.00015 C19.63365,12.00015 19.31415,11.73315 19.25815,11.36115 L19.25815,11.36115 L18.50815,6.36115 C18.44665,5.95165 18.72915,5.56965 19.13865,5.50815 Z" id="Combined-Shape" fill="#FFFFFF" fill-rule="nonzero"></path>
    </g>
</svg>