<?xml version="1.0" encoding="UTF-8"?>
<svg width="40px" height="40px" viewBox="0 0 40 40" version="1.1" xmlns="http://www.w3.org/2000/svg" xmlns:xlink="http://www.w3.org/1999/xlink">
    <!-- Generator: Sketch 55 (78076) - https://sketchapp.com -->
    <title>icons/clock-Icon</title>
    <desc>Created with Sketch.</desc>
    <g id="Symbols" stroke="none" stroke-width="1" fill="none" fill-rule="evenodd">
        <g id="Desktop/promo-bar" transform="translate(-10.000000, -10.000000)" fill="#FFFFFF" fill-rule="nonzero">
            <g id="icons/clock-Icon" transform="translate(10.000000, 10.000000)">
                <path d="M11.999952,19.1980032 C11.999952,19.8612006 11.4623542,20.3979984 10.7999568,20.3979984 L1.1999952,20.3979984 C0.53759785,20.3979984 0,19.8612006 0,19.1980032 C0,18.5348059 0.53759785,17.998008 1.1999952,17.998008 L10.7999568,17.998008 C11.4623542,17.998008 11.999952,18.5348059 11.999952,19.1980032 Z M13.999944,15.5980176 L4.3999824,15.5980176 C3.73758505,15.5980176 3.1999872,15.0612198 3.1999872,14.3980224 C3.1999872,13.7348251 3.73758505,13.1980272 4.3999824,13.1980272 L13.999944,13.1980272 C14.6623414,13.1980272 15.1999392,13.7348251 15.1999392,14.3980224 C15.1999392,15.0612198 14.6623414,15.5980176 13.999944,15.5980176 Z M4.3999824,25.1979792 C3.73758505,25.1979792 3.1999872,24.6611814 3.1999872,23.997984 C3.1999872,23.3347867 3.73758505,22.7979888 4.3999824,22.7979888 L13.999944,22.7979888 C14.6623414,22.7979888 15.1999392,23.3347867 15.1999392,23.997984 C15.1999392,24.6611814 14.6623414,25.1979792 13.999944,25.1979792 L4.3999824,25.1979792 Z M39.5936016,15.9691361 C39.8632005,17.2851309 40,18.6403254 40,19.99792 C40,21.3555146 39.8632005,22.7115092 39.5936016,24.0275039 C39.3312027,25.3114988 38.9392042,26.5746937 38.4280063,27.7834889 C37.9264083,28.9682841 37.3064108,30.1114796 36.5832137,31.1810753 C35.8688165,32.238671 35.0472198,33.2346671 34.1432234,34.1394634 C33.2352271,35.0466598 32.239231,35.8682565 31.1816353,36.5818537 C30.1136395,37.3034508 28.9712441,37.9234483 27.7856489,38.4258463 C26.5776537,38.9362443 25.3144587,39.3282427 24.0296639,39.5914416 C22.7104692,39.8610406 21.3552746,39.99784 20.00008,39.99784 C18.6440854,39.99784 17.2888908,39.8610406 15.9704961,39.5914416 C14.6849013,39.3282427 13.4217063,38.9362443 12.2145111,38.4258463 C11.0289159,37.9234483 9.88572046,37.3034508 8.81692473,36.5810537 C7.76092896,35.8682565 6.76493294,35.0466598 5.85773657,34.1402634 C4.95214019,33.2346671 4.13134347,32.238671 3.41614634,31.1810753 C3.04494782,30.6322775 3.18974724,29.8858805 3.73934504,29.5154819 C4.28894284,29.1434834 5.03373987,29.2874829 5.40573838,29.8370807 C6.03453586,30.7690769 6.75773297,31.6458734 7.55532978,32.4434702 C8.35292659,33.241067 9.22972308,33.9642641 10.1601194,34.5922616 C11.1009156,35.2282591 12.1073116,35.7738569 13.1497074,36.2154551 C14.2105032,36.6642533 15.3216987,37.009052 16.4512942,37.240251 C18.7720849,37.7154491 21.2280751,37.7154491 23.5480658,37.240251 C24.6776613,37.009052 25.7888568,36.6642533 26.8504526,36.2154551 C27.8928484,35.7738569 28.8992444,35.2282591 29.8392406,34.5930616 C30.7704369,33.9642641 31.6464334,33.241067 32.4448302,32.4426702 C33.242427,31.6458734 33.9656241,30.7690769 34.5944216,29.8370807 C35.2304191,28.8962844 35.7768169,27.8906884 36.2168151,26.8482926 C36.6672133,25.7858969 37.011212,24.6755013 37.242411,23.5467058 C37.4792101,22.3875104 37.6000096,21.1939152 37.6000096,19.99792 C37.6000096,18.8019248 37.4792101,17.6083296 37.242411,16.4507342 C37.011212,15.3203387 36.6672133,14.2099432 36.2168151,13.1475474 C35.7768169,12.1051516 35.2304191,11.1003556 34.5944216,10.1587594 C33.9656241,9.22756309 33.242427,8.3507666 32.4440302,7.55236979 C31.6464334,6.75477298 30.7704369,6.03157587 29.8400406,5.40357839 C28.8992444,4.76838093 27.8928484,4.22198311 26.8496526,3.78038488 C25.7888568,3.33158667 24.6776613,2.98678805 23.5480658,2.75558898 C21.2280751,2.28119088 18.7720849,2.28119088 16.4512942,2.75558898 C15.3216987,2.98678805 14.2105032,3.33158667 13.1489074,3.78038488 C12.1073116,4.22198311 11.1009156,4.76838093 10.1609194,5.40277839 C9.22972308,6.03157587 8.35292659,6.75477298 7.55452978,7.55316979 C6.75773297,8.3507666 6.03453586,9.22756309 5.40573838,10.1587594 C5.03373987,10.7075572 4.28894284,10.8531566 3.73934504,10.4811581 C3.18974724,10.1099596 3.04494782,9.36436254 3.41614634,8.81476474 C4.13134347,7.75716897 4.95214019,6.76197295 5.85693657,5.85637657 C6.76493294,4.9491802 7.76092896,4.12758349 8.81772473,3.41478634 C9.88572046,2.69238923 11.0289159,2.07239171 12.2137111,1.56999372 C13.4217063,1.05959576 14.6849013,0.66759733 15.9704961,0.404398382 C18.6080856,-0.134799461 21.3920744,-0.134799461 24.0296639,0.404398382 C25.3144587,0.66759733 26.5776537,1.05959576 27.7848489,1.56999372 C28.9712441,2.07239171 30.1136395,2.69238923 31.1824353,3.41478634 C32.239231,4.12758349 33.2352271,4.9491802 34.1424234,5.85557658 C35.0472198,6.76197295 35.8688165,7.75716897 36.5832137,8.81476474 C37.3064108,9.88516046 37.9264083,11.0275559 38.4280063,12.2123512 C38.9392042,13.4211463 39.3312027,14.6851413 39.5936016,15.9691361 Z M19.99992,6.79805281 C20.6623174,6.79805281 21.1999152,7.33485066 21.1999152,7.99804801 L21.1999152,19.4148023 L26.3414946,23.4539862 C26.8622926,23.8643845 26.9526922,24.6179815 26.5438938,25.1395794 C26.3070948,25.4403782 25.9542962,25.5979776 25.5990976,25.5979776 C25.3398986,25.5979776 25.0782997,25.5147779 24.8583006,25.3419786 L19.258323,20.9419962 C18.9687241,20.7139971 18.7999248,20.3659985 18.7999248,19.998 L18.7999248,7.99804801 C18.7999248,7.33485066 19.3375226,6.79805281 19.99992,6.79805281 Z" id="Combined-Shape"></path>
            </g>
        </g>
    </g>
</svg>