<?xml version="1.0" encoding="UTF-8"?>
<svg width="15px" height="15px" viewBox="0 0 15 15" version="1.1" xmlns="http://www.w3.org/2000/svg" xmlns:xlink="http://www.w3.org/1999/xlink">
    <!-- Generator: Sketch 58 (84663) - https://sketch.com -->
    <title>icons/close</title>
    <desc>Created with Sketch.</desc>
    <g id="icons/close" stroke="none" stroke-width="1" fill="none" fill-rule="evenodd">
        <g id="icons/plus" transform="translate(7.500000, 7.500000) rotate(45.000000) translate(-7.500000, -7.500000) " fill="#1A1A1A" fill-rule="nonzero">
            <path d="M8,9.18485099e-17 C8.55228475,1.25666197e-16 9,0.44771525 9,1 L9,6 L14,6 C14.5522847,6 15,6.44771525 15,7 L15,8 C15,8.55228475 14.5522847,9 14,9 L9,9 L9,14 C9,14.5522847 8.55228475,15 8,15 L7,15 C6.44771525,15 6,14.5522847 6,14 L5.999,9 L1,9 C0.44771525,9 6.76353751e-17,8.55228475 0,8 L0,7 C-6.76353751e-17,6.44771525 0.44771525,6 1,6 L6,6 L6,1 C6,0.44771525 6.44771525,-1.25666197e-16 7,-9.18485099e-17 L8,9.18485099e-17 Z" id="Combined-Shape"></path>
        </g>
    </g>
</svg>