<?xml version="1.0" encoding="UTF-8"?>
<svg width="17px" height="17px" viewBox="0 0 17 17" version="1.1" xmlns="http://www.w3.org/2000/svg" xmlns:xlink="http://www.w3.org/1999/xlink">
    <!-- Generator: Sketch 57.1 (83088) - https://sketch.com -->
    <title>icons/confirmation-check copy</title>
    <desc>Created with Sketch.</desc>
    <g id="Symbols" stroke="none" stroke-width="1" fill="none" fill-rule="evenodd">
        <g id="Modal/RTPS-cc" transform="translate(-68.000000, -598.000000)" fill="#595959">
            <g id="Value-props" transform="translate(69.000000, 489.000000)">
                <g id="Group" transform="translate(0.000000, 6.000000)">
                    <g id="icons/confirmation-check" transform="translate(0.000000, 104.000000)">
                        <g id="icon">
                            <path d="M7.5,15.703125 C12.0304608,15.703125 15.703125,12.0304608 15.703125,7.5 C15.703125,2.96953916 12.0304608,-0.703125 7.5,-0.703125 C2.96953916,-0.703125 -0.703125,2.96953916 -0.703125,7.5 C-0.703125,12.0304608 2.96953916,15.703125 7.5,15.703125 Z M7.5,14.296875 C3.74618959,14.296875 0.703125,11.2538104 0.703125,7.5 C0.703125,3.74618959 3.74618959,0.703125 7.5,0.703125 C11.2538104,0.703125 14.296875,3.74618959 14.296875,7.5 C14.296875,11.2538104 11.2538104,14.296875 7.5,14.296875 Z" id="Oval" fill-rule="nonzero"></path>
                            <path d="M4.171875,7.80803571 C3.86121483,7.57504059 3.42049513,7.63800054 3.1875,7.94866071 C2.95450487,8.25932089 3.01746483,8.70004059 3.328125,8.93303571 L6.00669643,10.9419643 C6.31530565,11.1734212 6.7527734,11.1130103 6.98710428,10.8065776 L11.3397829,5.11461336 C11.575671,4.80614418 11.5168325,4.36485534 11.2083634,4.12896715 C10.8998942,3.89307896 10.4586053,3.95191747 10.2227171,4.26038664 L6.29317887,9.39901362 L4.171875,7.80803571 Z" id="Stroke-1" fill-rule="nonzero"></path>
                        </g>
                    </g>
                </g>
            </g>
        </g>
    </g>
</svg>