<?xml version="1.0" encoding="UTF-8"?>
<svg width="47px" height="30px" viewBox="0 0 47 30" version="1.1" xmlns="http://www.w3.org/2000/svg" xmlns:xlink="http://www.w3.org/1999/xlink">
    <!-- Generator: Sketch 55.2 (78181) - https://sketchapp.com -->
    <title>icon/credit-card/discover-for-export</title>
    <desc>Created with Sketch.</desc>
    <defs>
        <rect id="path-1" x="0" y="0" width="47" height="30"></rect>
        <linearGradient x1="74.2667336%" y1="90.0668119%" x2="41.4473998%" y2="35.8649237%" id="linearGradient-3">
            <stop stop-color="#F9A020" offset="0%"></stop>
            <stop stop-color="#F99D20" offset="20.41%"></stop>
            <stop stop-color="#F79320" offset="43.48%"></stop>
            <stop stop-color="#F68820" offset="61.96%"></stop>
            <stop stop-color="#F57E20" offset="79.69%"></stop>
            <stop stop-color="#F47521" offset="100%"></stop>
        </linearGradient>
    </defs>
    <g id="icon/credit-card/discover-for-export" stroke="none" stroke-width="1" fill="none" fill-rule="evenodd">
        <g id="NEW/icons/svg/discover">
            <mask id="mask-2" fill="white">
                <use xlink:href="#path-1"></use>
            </mask>
            <use id="Mask" fill="#FFFFFF" xlink:href="#path-1"></use>
            <g id="NEW/icons/credit-card/logo/discover" mask="url(#mask-2)">
                <g transform="translate(3.250000, 9.000000)" id="4CflatblackTM-flat">
                    <g>
                        <path d="M43.8369412,7.78329114 C43.8369412,7.78329114 31.2762353,16.8850633 8.272,20.9601266 L43.8369412,20.9601266 L43.8369412,7.78329114 Z" id="Path" fill="#F58220" fill-rule="nonzero"></path>
                        <path d="M1.91788235,0.196708861 L0,0.196708861 L0,7.07620253 L1.90752941,7.07620253 C2.92211765,7.07620253 3.65458824,6.83164557 4.29905882,6.28139241 C5.06258824,5.63278481 5.51552941,4.65189873 5.51552941,3.63911392 C5.51552941,1.61088608 4.03764706,0.196708861 1.91788235,0.196708861 Z M3.44494118,5.3643038 C3.03341176,5.74443038 2.50023529,5.91189873 1.65647059,5.91189873 L1.30447059,5.91189873 L1.30447059,1.36101266 L1.65647059,1.36101266 C2.50023529,1.36101266 3.01270588,1.51518987 3.44494118,1.91658228 C3.89788235,2.32860759 4.16964706,2.96924051 4.16964706,3.62848101 C4.16964706,4.29037975 3.89788235,4.95227848 3.44494118,5.3643038 Z" id="Shape" fill="#000000" fill-rule="nonzero"></path>
                        <rect id="Rectangle" fill="#000000" fill-rule="nonzero" x="6.116" y="0.196708861" width="1.30705882" height="6.87949367"></rect>
                        <path d="M10.6169412,2.83632911 C9.83270588,2.53860759 9.60235294,2.34189873 9.60235294,1.96974684 C9.60235294,1.5364557 10.0112941,1.20683544 10.5755294,1.20683544 C10.9663529,1.20683544 11.2898824,1.37164557 11.6289412,1.76506329 L12.3122353,0.845316456 C11.7505882,0.340253165 11.0776471,0.0824050633 10.3425882,0.0824050633 C9.15717647,0.0824050633 8.25388235,0.927721519 8.25388235,2.05481013 C8.25388235,3.00379747 8.67576471,3.48759494 9.90258824,3.9421519 C10.4150588,4.12822785 10.6738824,4.25050633 10.8058824,4.33291139 C11.0672941,4.50835443 11.1967059,4.75556962 11.1967059,5.04531646 C11.1967059,5.6035443 10.7644706,6.01556962 10.1821176,6.01556962 C9.55835294,6.01556962 9.05623529,5.69658228 8.756,5.09848101 L7.91223529,5.93316456 C8.51529412,6.83962025 9.23741176,7.24367089 10.2312941,7.24367089 C11.5901176,7.24367089 12.5425996,6.31594937 12.5425996,4.98417722 C12.5451765,3.88898734 12.1051765,3.39455696 10.6169412,2.83632911 Z" id="Path" fill="#000000" fill-rule="nonzero"></path>
                        <path d="M12.9567059,3.64177215 C12.9567059,5.66468354 14.5018824,7.23303797 16.4922353,7.23303797 C17.0538824,7.23303797 17.5352941,7.11873418 18.1305882,6.83164557 L18.1305882,5.25265823 C17.6077647,5.78962025 17.1444706,6.00493671 16.5517647,6.00493671 C15.2343529,6.00493671 14.3025882,5.02405063 14.3025882,3.63113924 C14.3025882,2.31 15.2654118,1.26797468 16.4922353,1.26797468 C17.116,1.26797468 17.5870588,1.49658228 18.1305882,2.04151899 L18.1305882,0.462531646 C17.556,0.164810127 17.0849412,0.0398734177 16.5232941,0.0398734177 C14.5432941,0.0398734177 12.9567059,1.64012658 12.9567059,3.64177215 Z" id="Path" fill="#000000" fill-rule="nonzero"></path>
                        <polygon id="Path" fill="#000000" fill-rule="nonzero" points="28.4912941 4.81670886 26.7054118 0.196708861 25.2792941 0.196708861 28.1211765 7.2543038 28.8251765 7.2543038 31.7188235 0.196708861 30.3030588 0.196708861"></polygon>
                        <polygon id="Path" fill="#000000" fill-rule="nonzero" points="32.3089412 7.07620253 36.0152941 7.07620253 36.0152941 5.91189873 33.616 5.91189873 33.616 4.05379747 35.9272941 4.05379747 35.9272941 2.88949367 33.616 2.88949367 33.616 1.36101266 36.0152941 1.36101266 36.0152941 0.196708861 32.3089412 0.196708861"></polygon>
                        <path d="M41.1891765,2.22759494 C41.1891765,0.93835443 40.3247059,0.196708861 38.8183529,0.196708861 L36.8797647,0.196708861 L36.8797647,7.07620253 L38.1842353,7.07620253 L38.1842353,4.31164557 L38.3550588,4.31164557 L40.1642353,7.07620253 L41.7715294,7.07620253 L39.6621176,4.17873418 C40.6482353,3.97139241 41.1891765,3.28025316 41.1891765,2.22759494 Z M38.5672941,3.36265823 L38.1868235,3.36265823 L38.1868235,1.27860759 L38.588,1.27860759 C39.4007059,1.27860759 39.8433054,1.62949367 39.8433054,2.29936709 C39.8458824,2.99050633 39.4032941,3.36265823 38.5672941,3.36265823 Z" id="Shape" fill="#000000" fill-rule="nonzero"></path>
                        <path d="M25.6856471,3.66037975 C25.6856471,5.68329114 24.0887059,7.32075949 22.1216471,7.32075949 C20.152,7.32075949 18.5576471,5.68329114 18.5576471,3.66037975 C18.5576471,1.63746835 20.1545882,0 22.1216471,0 C24.0912941,0 25.6856471,1.63746835 25.6856471,3.66037975 Z" id="Path" fill="url(#linearGradient-3)" fill-rule="nonzero"></path>
                        <g id="Group" transform="translate(41.152941, 0.000000)"></g>
                    </g>
                </g>
            </g>
        </g>
    </g>
</svg>