<?xml version="1.0" encoding="UTF-8"?>
<svg width="40px" height="40px" viewBox="0 0 40 40" version="1.1" xmlns="http://www.w3.org/2000/svg" xmlns:xlink="http://www.w3.org/1999/xlink">
    <!-- Generator: Sketch 55 (78076) - https://sketchapp.com -->
    <title>icons/dollar-sign-icon</title>
    <desc>Created with Sketch.</desc>
    <g id="Page-1" stroke="none" stroke-width="1" fill="none" fill-rule="evenodd">
        <g id="promo-bar-Copy" transform="translate(-10.000000, -10.000000)" fill="#FFFFFF" fill-rule="nonzero">
            <g id="icons/dollar-sign-icon" transform="translate(10.000000, 10.000000)">
                <path d="M20,37.3333333 C29.5573333,37.3333333 37.3333333,29.5573333 37.3333333,20 C37.3333333,10.4426667 29.5573333,2.66666667 20,2.66666667 C10.4426667,2.66666667 2.66666667,10.4426667 2.66666667,20 C2.66666667,29.5573333 10.4426667,37.3333333 20,37.3333333 Z M20,0 C31.0275556,0 40,8.97155556 40,20 C40,31.0284444 31.0275556,40 20,40 C8.97244444,40 0,31.0284444 0,20 C0,8.97155556 8.97244444,0 20,0 Z M23.1057818,19.4053528 C23.7934153,19.6957503 24.3820579,20.1335942 24.869058,20.7197836 C25.356058,21.306872 25.6,22.1034422 25.6,23.1094943 C25.6,24.3286243 25.1845916,25.357153 24.3528909,26.1941811 C23.5220741,27.0330073 22.4013552,27.5580604 20.992502,27.7720375 L20.992502,29.2114381 C20.992502,29.5620728 20.888208,29.847076 20.6796199,30.0682456 C20.4692642,30.2894152 20.1908522,30.4 19.8461516,30.4 C19.5023348,30.4 19.2256905,30.2894152 19.0153348,30.0682456 C18.8067467,29.847076 18.7024527,29.5620728 18.7024527,29.2114381 L18.7024527,27.8169906 C17.847772,27.7405702 17.0160713,27.5580604 16.2064668,27.2685619 C15.39863,26.9790635 14.7012742,26.5978606 14.1170509,26.1258522 C13.9217206,25.9882955 13.7873757,25.8363538 13.7131325,25.669128 C13.6380055,25.5010031 13.6,25.2960166 13.6,25.0514714 C13.6,24.7323039 13.6936879,24.4490989 13.8810636,24.2063517 C14.0684393,23.9627055 14.2823304,23.8404329 14.5218531,23.8404329 C14.6721072,23.8404329 14.8099875,23.8674048 14.9381454,23.9204495 C15.0636518,23.9734943 15.2333505,24.0607034 15.4437063,24.1829761 C16.1313398,24.6397003 16.8092509,24.975051 17.4765559,25.1890281 C18.1429771,25.4021061 18.8438683,25.5090947 19.5783457,25.5090947 C20.5815129,25.5090947 21.3566473,25.3104017 21.9028651,24.9139147 C22.4508507,24.5183267 22.7239596,23.9465224 22.7239596,23.2002997 C22.7239596,22.7579605 22.5737055,22.4001332 22.274965,22.1259188 C21.9744568,21.8517045 21.5997054,21.6341311 21.1507108,21.4740978 C20.7008323,21.3149636 20.0724166,21.1288574 19.2628121,20.9139813 C18.1394417,20.6253819 17.2255432,20.3313881 16.5220004,20.0346972 C15.81669,19.7371072 15.2094866,19.2839792 14.7012742,18.6744142 C14.1912941,18.0648491 13.9376298,17.242206 13.9376298,16.2055858 C13.9376298,14.9711717 14.3724829,13.9201665 15.2413051,13.0516712 C16.1101274,12.1831759 17.2485232,11.6419396 18.6564926,11.4288616 L18.6564926,9.98856191 C18.6564926,9.63882622 18.7607866,9.35202497 18.9711424,9.13175442 C19.1814981,8.91058481 19.4581424,8.8 19.802843,8.8 C20.1457759,8.8 20.424188,8.91058481 20.6336599,9.13175442 C20.8431318,9.35202497 20.9483096,9.63882622 20.9483096,9.98856191 L20.9483096,11.406385 C22.4614569,11.604179 23.7642484,12.1598002 24.8575679,13.0741478 C25.2181778,13.3483621 25.3975989,13.7070884 25.3975989,14.1485286 C25.3975989,14.4685952 25.303911,14.7509011 25.1165353,14.9945473 C24.9291596,15.2381935 24.7073138,15.3595671 24.4536496,15.3595671 C24.3193047,15.3595671 24.1876114,15.3370905 24.0594535,15.2921374 C23.9339471,15.2462851 23.7642484,15.1545806 23.5556603,15.017923 C22.9405023,14.5755838 22.3598144,14.2438293 21.8135965,14.0226597 C21.2664948,13.8023892 20.6186345,13.6918044 19.8700155,13.6918044 C18.9402077,13.6918044 18.1995433,13.9012862 17.644487,14.3202497 C17.0903145,14.7401124 16.8136702,15.3146139 16.8136702,16.0455525 C16.8136702,16.548129 16.9709951,16.9563039 17.2856448,17.2691779 C17.6002946,17.581153 17.9971422,17.8212029 18.4770715,17.9884287 C18.956117,18.1565536 19.6075127,18.346256 20.4321426,18.5602331 C21.5245783,18.8344475 22.4172645,19.1167534 23.1057818,19.4053528 Z" id="Combined-Shape"></path>
            </g>
        </g>
    </g>
</svg>