<svg xmlns="http://www.w3.org/2000/svg" width="25" height="25" viewBox="0 0 25 25">
    <path fill="#1A1A1A" fill-rule="nonzero" d="M19.097 18.369a.728.728 0 0 1-.728.728h-3.357v-5.103h1.72l.258-1.997h-1.977v-1.272c0-.577.16-.97.984-.97h1.052V7.974a14.587 14.587 0 0 0-1.537-.078c-1.52 0-2.561.928-2.561 2.632v1.47h-1.714v1.996h1.714v5.103h-6.32a.728.728 0 0 1-.728-.728V6.63c0-.402.326-.728.728-.728H18.37c.402 0 .728.326.728.728v11.738zM12.5 0C5.597 0 0 5.596 0 12.5 0 19.403 5.597 25 12.5 25S25 19.403 25 12.5C25 5.596 19.403 0 12.5 0z"/>
</svg>
