<svg xmlns="http://www.w3.org/2000/svg" width="25" height="23" viewBox="0 0 25 23">
    <path fill="#1A1A1A" fill-rule="nonzero" d="M6 17a3 3 0 1 1 0 6 3 3 0 0 1 0-6zm12 0a3 3 0 1 1 0 6 3 3 0 0 1 0-6zM6 18.5c-.827 0-1.5.673-1.5 1.5s.673 1.5 1.5 1.5 1.5-.673 1.5-1.5-.673-1.5-1.5-1.5zm12 0c-.827 0-1.5.673-1.5 1.5s.673 1.5 1.5 1.5 1.5-.673 1.5-1.5-.673-1.5-1.5-1.5zm-4.75.75a.75.75 0 0 1 0 1.5h-2.5a.75.75 0 0 1 0-1.5zm9-14.75a.75.75 0 0 1 .67.415l.042.098 2 6a.755.755 0 0 1 .038.22l-.006.113-1 7.75a.75.75 0 0 1-1.494-.09l.007-.102.978-7.58L21.71 6h-2.96a.75.75 0 0 1-.102-1.493l.102-.007h3.5zM1.22 13l.101.003A.75.75 0 0 1 2 13.72l-.003.102-.5 5.25a.75.75 0 0 1-1.496-.04l.002-.102.5-5.25a.75.75 0 0 1 .617-.67l.1-.01zM16.75 0a.751.751 0 0 1 .75.733l-.005.106-1.15 9.661h3.905a.75.75 0 0 1 .102 1.493L20.25 12H15.5a.751.751 0 0 1-.75-.733l.006-.106 1.15-9.661H3.4l-.158 1.106a.75.75 0 1 1-1.493-.11l.008-.102.25-1.75A.75.75 0 0 1 2.64.008L2.75 0h14zm-8.5 10.5a.75.75 0 0 1 .102 1.493L8.25 12h-6.5a.75.75 0 0 1-.102-1.493l.102-.007h6.5zm3.75-3a.75.75 0 0 1 .102 1.493L12 9H.75a.75.75 0 0 1-.102-1.493L.75 7.5H12zm-10.25-3H6a.75.75 0 0 1 .102 1.493L6 6H1.75a.75.75 0 0 1-.102-1.493L1.75 4.5H6z"/>
</svg>
