<?xml version="1.0" encoding="utf-8"?>
<!-- Generator: Adobe Illustrator 23.0.3, SVG Export Plug-In . SVG Version: 6.00 Build 0)  -->
<svg version="1.1" id="Layer_1" xmlns="http://www.w3.org/2000/svg" xmlns:xlink="http://www.w3.org/1999/xlink" x="0px" y="0px"
	 viewBox="0 0 560.31 140.49" style="enable-background:new 0 0 560.31 140.49;" xml:space="preserve">
<style type="text/css">
	.st0{fill:#F7971F;}
</style>
<g>
	<path class="st0" d="M61.4,45.78c-2.1-15.5-4.1-35.3-19.6-43.4c-6.7-3.6-15.7-2.9-22.2,0.6c-3.2,2.3-6.3,4.8-8.4,8.1
		c-2.3,3.5-4.2,7.2-5.6,11.2C1.1,34.38,0,48.08,0,60.88c0,14,0.4,28.2,3,42c2.7,13.9,7.7,33.7,24.5,35.9l33.4,0.4
		c1.6,0,1.2-0.5,1.2-1.9v-64.7c0-1.5,0.6-2.2-1.1-2.2H37.1c-1.5,0-2.2-0.6-2.2,1.1c0,1.5,0,2.9,0,4.4c0,2.2,0,4.4,0,6.6
		c0,1.1,0,2.2,0,3.3c0,1.4-0.6,2.2,1.1,2.2c2.1,0,4.2,0,6.3,0c1.3,0,2.1-0.6,2.1,1c0.1,1.3,0,2.6,0,4c-0.1,9,0,18,0,27
		c0,1.7-0.6,1.1-2,1.1c-1,0-2,0-3.1,0c-2.1,0-4.1,0-6.2,0c-3.7-0.6-6.4-3.4-7.8-6.7c-3.2-7.8-4.3-16.6-4.8-25
		c-0.5-8.6-1.1-17.4-0.8-26c0.3-8.9-0.3-18.4,1.7-27.1c1.1-6.3,2.6-17.8,11.1-16.7c7.6,0.9,8.8,13.1,9.6,18.9
		c0.3,2.1,0.5,4.2,0.6,6.3c0.1,1.2-0.2,1,0.6,1H61.4z"/>
	<path class="st0" d="M349.8,33.68c-0.8-4.3-1.8-8.3-3.3-12.4c-1.3-3.8-3.4-8.5-6-11.5c-5.2-6-12.3-9.1-20.2-8.5
		c-8,0.6-14.2,5.9-18.2,12.6c-8.6,14.5-9.1,33.4-9.3,49.7c-0.1,8.7,0.1,17.7,1,26.3c0.9,8.5,1.9,17.1,4.2,25.4
		c1.4,5,3.1,9.9,5.8,14.3c2.5,4,6.5,8.4,11.2,9.6c5.5,1.5,10.5,1.4,16-0.2c4.7-1.4,8.3-6.1,10.8-10.1c6.1-9.8,7.6-21.5,8.9-32.7
		c0.6-5.9,1.1-11.8,1.3-17.7c0.2-5.8,0.9-11.9,0.2-17.7C352.1,51.68,351.4,42.58,349.8,33.68z M330.4,108.58
		c-0.6,3.5-1.1,7.5-3.6,10.3s-7.1,2.5-9.1-0.7c-2.1-3.3-2.7-7.1-3.2-10.9c-0.6-4.6-1.1-9.2-1.3-13.8c-0.4-8.8-0.5-17.6-0.5-26.5
		c0-8.8,0-17.6,0.7-26.3c0.4-5.4,0.9-19.4,8.4-20.1c8.4-0.8,9,13,9.8,18.6c0.3,8.9,0.8,17.8,0.8,26.8c0,5.3,0.7,11.1-0.2,16.3
		C332.4,91.08,332,99.88,330.4,108.58z"/>
	<path class="st0" d="M476.7,7.28c-6.5-5.7-15.1-7.9-23.4-4.8c-15.9,5.9-19.1,26.6-20.6,41.3c-1.8,17.7-1.2,35.8,0.4,53.4
		c0.9,9,2.9,18,6.2,26.4c3,7.8,10.4,16.9,19.7,16.6c4.5-0.2,8.2-0.2,12.4-2.2c3.4-1.6,6.5-5.3,8.5-8.5c4.7-7.6,6-16.2,8.3-24.6
		c-3.5-0.7-7.6-0.1-11.2-0.1c-2.1,0-4.2,0-6.3,0c-1.6,0-1.2,0.6-1.3,2c-0.1,1-0.2,2-0.4,3c-0.5,3.1-1.6,6.7-3.5,9.2s-7,2.5-8.8-0.1
		c-2-2.9-2.9-7-3.3-10.5c-0.5-3.8-1.2-7.8-1.2-11.6c0-4-0.4-8-0.3-11.9c0-1.1-1-3.7,0.6-3.7c12.7,0,25.4,0,38.2,0
		c0.9-17.6,0.7-34.9-2.8-52.2C486.2,21.38,482.5,12.48,476.7,7.28z M451.3,64.28c-0.1-4.3-0.1-8.7,0.2-13c0.4-4.3,0.1-8.8,0.7-13.1
		c0.6-5.4,1.8-19.3,10.1-17.6c3.5,0.7,5.1,4.2,5.9,7.4c0.9,3.5,1.7,7,2.1,10.6c0.5,4,0.3,8.2,0.6,12.3c0.4,4.5,0.2,8.9,0.3,13.4
		C464.6,64.28,458,64.28,451.3,64.28z"/>
	<path class="st0" d="M522.1,81.08c12.6,0,25.3,0,37.9,0c0.5-9.1,0.3-18.2,0.1-27.2s-1.9-17.8-3.5-26.7c-0.6-3.7-2.5-7.5-4.1-10.8
		c-0.9-1.9-1.9-3.7-3-5.4c-1-1.7-2.6-2.8-4-4.2c-6.3-5-14.5-7.3-22.3-4.4c-15.8,5.9-19,25.6-21.1,40.2c-1.5,17.4-1.7,35.1,0.4,52.4
		c1.1,9.2,2.4,18.5,5.8,27.2c1.6,4.1,3.7,8.3,6.7,11.5c3.2,3.4,6.9,5.3,11.4,6.3c8.6,2,18.2-2.1,22.7-9.6c4.8-8,6.3-16.6,8.7-25.4
		c-3.9-0.6-8.2-0.2-12.1-0.2c-2.2,0-4.5,0-6.7,0.1c-0.2,2-0.4,4-0.9,6c-0.6,2.9-1.6,7.3-4.3,9c-3.2,2-6.9,0.5-8.6-2.5
		c-3.7-6.8-3.3-15.6-4-23.1c-0.3-4-0.6-8.1-0.5-12.2C520.8,80.78,520.9,81.08,522.1,81.08z M520.6,64.28c-0.4-3.1,0.2-6.5,0.3-9.6
		c0.1-3.6,0-7.1,0.3-10.7c0.6-6.2,1-12.6,3.3-18.4c1.7-4.2,6.7-7.3,10.5-3.2c1.6,1.8,2.8,5.4,3.2,7.7c0.6,3.4,1.2,6.8,1.5,10.2
		c0.6,6.6,0.6,13.3,0.8,20c0,0.9,0.8,4-0.4,4c-1.1,0-2.2,0-3.3,0C531.4,64.28,526,64.28,520.6,64.28z"/>
	<polygon class="st0" points="107.2,139.18 107.2,86.38 132.5,2.18 112.8,2.18 96.8,64.08 80.6,2.18 61.7,2.18 86.6,88.68 
		86.6,139.18 	"/>
	<path class="st0" d="M212,139.18l-6.1-137h-14.1L172,64.28l-19.4-62.1h-12.9l-6.4,137.1h19.9l1.2-80.9l14.9,45.4
		c0.6,2,0.3,2.8,2.4,2.8c2.9,0,2.9,0.5,3.7-2l15.3-48.4l1.4,83L212,139.18L212,139.18z"/>
	<path class="st0" d="M225.7,2.18v137.1h19c8.7-0.3,18.3,1.1,26.2-3.6c7.9-4.7,10.4-13.2,10.8-21.9c0.2-4.7,0-9.4,0-14.1
		c0-5.1,0.3-10.3-0.1-15.3c-0.7-8.4-5-16.5-14-18.1c0.5-1.1,3.3-1.4,4.4-1.8c1.4-0.7,2.8-1.6,3.9-2.7c3-2.8,3.9-6.2,4.7-10.1
		c0.6-8.7,0.4-17.6,0-26.4c-1.7-7.5-3.7-14.7-10.7-19c-4.7-2.8-10.3-4.2-15.8-4.2h-28.4V2.18z M246,20.58c0-1.7,0.6-1.1,2-1.1
		c3.9-0.1,8.4-0.3,11.2,2.9c2.7,3.1,2.4,7.7,2.4,11.5c0,4.8,0,9.5,0,14.3c-0.2,3-0.8,6.8-3.8,8.3c-2.3,2.5-8.8,1.3-11.8,1.3
		L246,20.58L246,20.58z M246,74.58c4.4,0.1,9.1-0.9,12.7,2.3c3.4,3.2,2.9,8.3,2.9,12.6c0,5,0,10,0,15.1c0,4.4,0.7,9.7-1.4,13.7
		c-2.9,4-6.6,3.8-11.3,3.9c-1,0-1.9,0-2.9,0L246,74.58L246,74.58z"/>
	<path class="st0" d="M365,2.18l-0.2,137.2h20c-0.1-17,0-34.1,0-51.1c0-4.3,0-8.6,0.1-12.9c3.7-0.1,8.1-0.6,11.7,0.5
		c8.2,2.5,5.9,13.9,5.9,20.7c0,8.4-0.1,16.8,0.3,25.3c0.2,4.1,0.6,8.2,1.3,12.2c0.2,1.6-0.3,5.3,1.7,5.3c6.5,0,13,0,19.5,0
		c-0.6-7.5-1.8-14.8-2.2-22.3c-0.4-7.3-0.3-14.6-0.7-21.9c-0.3-6.1,0.6-13.4-2.3-19.1c-3.1-6.2-10.6-8.6-17.1-9.1
		c0.7-0.8,4.3-1,5.5-1.4c1.7-0.6,3.3-1.5,4.8-2.6c3.2-2.4,4.9-5.9,5.8-9.7c2.1-8.1,1.2-16.9,1.1-25.3c-0.1-7.8-3.4-15.2-9.1-20.4
		c-4.9-4.5-12.5-5.5-18.9-5.5H365V2.18z M399.8,53.58c-1.3,3.1-5.9,3.9-8.9,4.2c-2,0.2-4,0.2-6,0.1c0-2.6,0-5.1,0-7.7
		c0-9.1-0.1-18.3,0-27.4c0-1.1,0-2.2,0.1-3.3c1.1,0,2.2,0,3.3,0c2,0,4.3-0.1,6.3,0.4c3.9,1.1,6.1,3.9,6,8c0,4.4,0,8.8,0,13.2
		C400.4,44.88,401.3,49.98,399.8,53.58z"/>
</g>
</svg>
