<svg xmlns="http://www.w3.org/2000/svg" width="25" height="25" viewBox="0 0 25 25">
    <path fill="#1A1A1A" fill-rule="nonzero" d="M16.702 15.658l.084.072 6.72 6.72v-4.2a.75.75 0 0 1 1.493-.101l.006.101v6.01a.726.726 0 0 1-.024.187l-.029.087-.003.012a.755.755 0 0 1-.303.354l-.106.054-.011.003a.79.79 0 0 1-.179.047l-.095.007h-6.01a.75.75 0 0 1-.102-1.493l.102-.007h4.2l-6.72-6.72a.75.75 0 0 1 .977-1.133zm-8.472.067a.75.75 0 1 1 1.061 1.06l-6.72 6.72h4.19a.75.75 0 1 1 0 1.5H.75a.75.75 0 0 1-.75-.75v-6.01a.75.75 0 0 1 1.5 0v4.21zM6.766 0a.75.75 0 0 1 .102 1.493l-.102.007h-4.21l6.73 6.73a.751.751 0 0 1-.968 1.14l-.093-.079-6.72-6.72v4.19a.75.75 0 0 1-1.493.101l-.007-.101V.75A.75.75 0 0 1 .654.007L.755 0h6.01zM18.25.005h6.01c.098 0 .189.02.274.053l.012.004a.753.753 0 0 1 .408.408l.004.012a.782.782 0 0 1 .046.178l.007.095v6.01a.75.75 0 0 1-1.494.102l-.006-.101v-4.2l-6.72 6.72a.748.748 0 0 1-1.06 0 .75.75 0 0 1-.073-.977l.073-.084 6.72-6.72h-4.2a.75.75 0 0 1-.103-1.493l.102-.007h6.01z"/>
</svg>
