<svg xmlns="http://www.w3.org/2000/svg" width="25" height="25" viewBox="0 0 25 25">
    <path fill="#1A1A1A" fill-rule="nonzero" d="M12.5 0C19.404 0 25 5.597 25 12.5 25 19.404 19.404 25 12.5 25S0 19.404 0 12.5C0 5.597 5.596 0 12.5 0zm.913 5h-1.826a39.358 39.358 0 0 0-2.18.045c-.797.037-1.342.163-1.82.35a3.665 3.665 0 0 0-1.329.864 3.674 3.674 0 0 0-.864 1.328c-.186.477-.313 1.022-.349 1.82-.03.661-.041.95-.044 2.18v1.826c.003 1.23.014 1.518.044 2.18.037.798.163 1.343.349 1.82.191.493.447.911.864 1.328.418.417.836.674 1.33.865.477.185 1.022.312 1.82.35.8.035 1.056.044 3.092.044 2.037 0 2.293-.009 3.092-.045.798-.037 1.344-.164 1.82-.349a3.676 3.676 0 0 0 1.329-.865 3.68 3.68 0 0 0 .866-1.328c.184-.477.312-1.022.348-1.82.037-.8.045-1.056.045-3.093s-.009-2.293-.045-3.092c-.036-.799-.163-1.344-.348-1.82a3.684 3.684 0 0 0-.866-1.33 3.668 3.668 0 0 0-1.328-.864c-.477-.186-1.023-.312-1.821-.349-.66-.03-.95-.041-2.179-.044zm-1.397 1.352h.968c1.564.001 1.825.01 2.547.043.731.033 1.128.156 1.392.258.35.136.6.299.862.561.263.263.425.512.562.862.103.265.225.662.258 1.393.03.654.04.93.043 2.134v1.794a38.389 38.389 0 0 1-.043 2.134c-.033.73-.155 1.128-.258 1.392-.137.35-.299.6-.562.862a2.312 2.312 0 0 1-.862.561c-.264.103-.66.226-1.392.259-.722.033-.983.042-2.547.044h-.968c-1.564-.002-1.824-.011-2.547-.044-.73-.033-1.128-.156-1.393-.259-.35-.136-.6-.298-.862-.56a2.318 2.318 0 0 1-.56-.863c-.103-.264-.226-.662-.26-1.392-.03-.688-.04-.957-.042-2.332V11.8c.002-1.375.012-1.644.043-2.332.033-.73.156-1.128.258-1.393.136-.35.299-.6.561-.862.263-.262.512-.425.862-.56.265-.103.662-.226 1.393-.26.723-.032.983-.041 2.547-.042h.968zm.484 2.297a3.85 3.85 0 1 0 0 7.702 3.85 3.85 0 0 0 0-7.702zm0 1.351a2.5 2.5 0 1 1 0 5 2.5 2.5 0 0 1 0-5zm4.003-2.404a.9.9 0 1 0 0 1.8.9.9 0 0 0 0-1.8z"/>
</svg>
