<svg xmlns="http://www.w3.org/2000/svg" width="25" height="25" viewBox="0 0 25 25">
    <path fill="#1A1A1A" fill-rule="nonzero" d="M12.5 0C17.747 0 22 4.477 22 10c0 7.28-8.95 14.559-9.476 14.98L12.5 25S3 17.5 3 10C3 4.477 7.253 0 12.5 0zm0 1.5c-4.453 0-8.075 3.813-8.075 8.5 0 4.98 5.211 10.576 8.068 13.08a37.161 37.161 0 0 0 3.725-3.803c1.987-2.362 4.357-5.888 4.357-9.277 0-2.27-.84-4.405-2.365-6.01-1.525-1.606-3.553-2.49-5.71-2.49zm0 3.308c2.623 0 4.75 2.152 4.75 4.807 0 2.656-2.127 4.808-4.75 4.808s-4.75-2.152-4.75-4.808c0-2.655 2.127-4.807 4.75-4.807zm0 1.442c-1.833 0-3.325 1.51-3.325 3.365 0 1.856 1.492 3.366 3.325 3.366 1.833 0 3.325-1.51 3.325-3.366 0-1.855-1.492-3.365-3.325-3.365z"/>
</svg>
