<?xml version="1.0" encoding="UTF-8"?>
<svg width="47px" height="30px" viewBox="0 0 47 30" version="1.1" xmlns="http://www.w3.org/2000/svg" xmlns:xlink="http://www.w3.org/1999/xlink">
    <!-- Generator: Sketch 55.2 (78181) - https://sketchapp.com -->
    <title>icon/credit-card/mastercard</title>
    <desc>Created with Sketch.</desc>
    <g id="icon/credit-card/mastercard" stroke="none" stroke-width="1" fill="none" fill-rule="evenodd">
        <g id="Mastercard" transform="translate(11.000000, 5.000000)">
            <g id="NEW/icon/credit-card/logo/mastercard">
                <g id="Group">
                    <path d="M4.77166026,19.8685652 L4.77166026,18.5542169 C4.77166026,18.0503834 4.4609475,17.7217963 3.92829706,17.7217963 C3.66197183,17.7217963 3.37345284,17.8094195 3.17370892,18.094195 C3.01835254,17.8532311 2.79641485,17.7217963 2.46350832,17.7217963 C2.24157064,17.7217963 2.01963295,17.7875137 1.8420828,18.0284775 L1.8420828,17.7656079 L1.37601366,17.7656079 L1.37601366,19.8685652 L1.8420828,19.8685652 L1.8420828,18.7075575 C1.8420828,18.3351588 2.04182672,18.1599124 2.35253948,18.1599124 C2.66325224,18.1599124 2.81860862,18.3570646 2.81860862,18.7075575 L2.81860862,19.8685652 L3.28467776,19.8685652 L3.28467776,18.7075575 C3.28467776,18.3351588 3.50661545,18.1599124 3.79513444,18.1599124 C4.1058472,18.1599124 4.26120359,18.3570646 4.26120359,18.7075575 L4.26120359,19.8685652 L4.77166026,19.8685652 L4.77166026,19.8685652 Z M11.6739223,17.7656079 L10.9193342,17.7656079 L10.9193342,17.1303395 L10.453265,17.1303395 L10.453265,17.7656079 L10.0315834,17.7656079 L10.0315834,18.1818182 L10.453265,18.1818182 L10.453265,19.1456736 C10.453265,19.6276013 10.653009,19.9123768 11.1856594,19.9123768 C11.3854033,19.9123768 11.607341,19.8466594 11.7626974,19.7590361 L11.6295348,19.3647317 C11.4963722,19.4523549 11.3410158,19.4742607 11.2300469,19.4742607 C11.0081093,19.4742607 10.9193342,19.3428258 10.9193342,19.1237678 L10.9193342,18.1818182 L11.6739223,18.1818182 L11.6739223,17.7656079 L11.6739223,17.7656079 Z M15.6244131,17.7217963 C15.3580879,17.7217963 15.1805378,17.8532311 15.0695689,18.0284775 L15.0695689,17.7656079 L14.6034998,17.7656079 L14.6034998,19.8685652 L15.0695689,19.8685652 L15.0695689,18.6856517 C15.0695689,18.3351588 15.2249253,18.1380066 15.5134443,18.1380066 C15.6022194,18.1380066 15.7131882,18.1599124 15.8019633,18.1818182 L15.9351259,17.7437021 C15.8463508,17.7217963 15.7131882,17.7217963 15.6244131,17.7217963 L15.6244131,17.7217963 Z M9.65428937,17.9408543 C9.43235169,17.7875137 9.12163892,17.7217963 8.78873239,17.7217963 C8.25608195,17.7217963 7.90098165,17.9846659 7.90098165,18.4008762 C7.90098165,18.7513691 8.16730687,18.9485214 8.63337601,19.0142388 L8.8553137,19.0361446 C9.09944516,19.0799562 9.23260777,19.1456736 9.23260777,19.2552026 C9.23260777,19.4085433 9.05505762,19.5180723 8.74434486,19.5180723 C8.4336321,19.5180723 8.18950064,19.4085433 8.03414426,19.2990142 L7.81220657,19.6495071 C8.05633803,19.8247536 8.38924456,19.9123768 8.72215109,19.9123768 C9.34357661,19.9123768 9.69867691,19.6276013 9.69867691,19.2332968 C9.69867691,18.8608981 9.41015792,18.6637459 8.96628254,18.5980285 L8.74434486,18.5761227 C8.54460094,18.5542169 8.38924456,18.5104053 8.38924456,18.3789704 C8.38924456,18.2256298 8.54460094,18.1380066 8.78873239,18.1380066 C9.05505762,18.1380066 9.32138284,18.2475356 9.45454545,18.313253 L9.65428937,17.9408543 L9.65428937,17.9408543 Z M22.0384123,17.7217963 C21.7720871,17.7217963 21.5945369,17.8532311 21.4835681,18.0284775 L21.4835681,17.7656079 L21.0174989,17.7656079 L21.0174989,19.8685652 L21.4835681,19.8685652 L21.4835681,18.6856517 C21.4835681,18.3351588 21.6389245,18.1380066 21.9274434,18.1380066 C22.0162185,18.1380066 22.1271874,18.1599124 22.2159624,18.1818182 L22.3491251,17.7437021 C22.26035,17.7217963 22.1271874,17.7217963 22.0384123,17.7217963 L22.0384123,17.7217963 Z M16.0904823,18.8170865 C16.0904823,19.4523549 16.5343577,19.9123768 17.2223645,19.9123768 C17.5330773,19.9123768 17.7550149,19.8466594 17.9769526,19.6714129 L17.7550149,19.2990142 C17.5774648,19.4304491 17.3999146,19.4961665 17.2001707,19.4961665 C16.8228767,19.4961665 16.5565514,19.2332968 16.5565514,18.8170865 C16.5565514,18.422782 16.8228767,18.1599124 17.2001707,18.1380066 C17.3999146,18.1380066 17.5774648,18.203724 17.7550149,18.3351588 L17.9769526,17.9627601 C17.7550149,17.7875137 17.5330773,17.7217963 17.2223645,17.7217963 C16.5343577,17.7217963 16.0904823,18.1818182 16.0904823,18.8170865 L16.0904823,18.8170865 Z M20.3960734,18.8170865 L20.3960734,17.7656079 L19.9300043,17.7656079 L19.9300043,18.0284775 C19.7746479,17.8313253 19.5527102,17.7217963 19.2641912,17.7217963 C18.6649595,17.7217963 18.1988903,18.1818182 18.1988903,18.8170865 C18.1988903,19.4523549 18.6649595,19.9123768 19.2641912,19.9123768 C19.574904,19.9123768 19.7968417,19.8028478 19.9300043,19.6056955 L19.9300043,19.8685652 L20.3960734,19.8685652 L20.3960734,18.8170865 Z M18.6871532,18.8170865 C18.6871532,18.4446878 18.9312847,18.1380066 19.3307725,18.1380066 C19.7080666,18.1380066 19.9743918,18.422782 19.9743918,18.8170865 C19.9743918,19.1894852 19.7080666,19.4961665 19.3307725,19.4961665 C18.9312847,19.4742607 18.6871532,19.1894852 18.6871532,18.8170865 Z M13.1165173,17.7217963 C12.4950918,17.7217963 12.0512164,18.1599124 12.0512164,18.8170865 C12.0512164,19.4742607 12.4950918,19.9123768 13.1387111,19.9123768 C13.4494238,19.9123768 13.7601366,19.8247536 14.004268,19.6276013 L13.7823303,19.2990142 C13.6047802,19.4304491 13.3828425,19.5180723 13.1609048,19.5180723 C12.8723858,19.5180723 12.5838668,19.3866375 12.5172855,19.0142388 L14.0930431,19.0142388 L14.0930431,18.8389923 C14.1152369,18.1599124 13.715749,17.7217963 13.1165173,17.7217963 L13.1165173,17.7217963 Z M13.1165173,18.1161008 C13.4050363,18.1161008 13.6047802,18.2913472 13.6491677,18.6199343 L12.5394793,18.6199343 C12.5838668,18.3351588 12.7836108,18.1161008 13.1165173,18.1161008 Z M24.6794708,18.8170865 L24.6794708,16.9331873 L24.2134016,16.9331873 L24.2134016,18.0284775 C24.0580452,17.8313253 23.8361076,17.7217963 23.5475886,17.7217963 C22.9483568,17.7217963 22.4822877,18.1818182 22.4822877,18.8170865 C22.4822877,19.4523549 22.9483568,19.9123768 23.5475886,19.9123768 C23.8583013,19.9123768 24.080239,19.8028478 24.2134016,19.6056955 L24.2134016,19.8685652 L24.6794708,19.8685652 L24.6794708,18.8170865 Z M22.9705506,18.8170865 C22.9705506,18.4446878 23.214682,18.1380066 23.6141699,18.1380066 C23.9914639,18.1380066 24.2577892,18.422782 24.2577892,18.8170865 C24.2577892,19.1894852 23.9914639,19.4961665 23.6141699,19.4961665 C23.214682,19.4742607 22.9705506,19.1894852 22.9705506,18.8170865 Z M7.39052497,18.8170865 L7.39052497,17.7656079 L6.92445583,17.7656079 L6.92445583,18.0284775 C6.76909945,17.8313253 6.54716176,17.7217963 6.25864277,17.7217963 C5.65941101,17.7217963 5.19334187,18.1818182 5.19334187,18.8170865 C5.19334187,19.4523549 5.65941101,19.9123768 6.25864277,19.9123768 C6.56935553,19.9123768 6.79129321,19.8028478 6.92445583,19.6056955 L6.92445583,19.8685652 L7.39052497,19.8685652 L7.39052497,18.8170865 Z M5.65941101,18.8170865 C5.65941101,18.4446878 5.90354247,18.1380066 6.3030303,18.1380066 C6.68032437,18.1380066 6.94664959,18.422782 6.94664959,18.8170865 C6.94664959,19.1894852 6.68032437,19.4961665 6.3030303,19.4961665 C5.90354247,19.4742607 5.65941101,19.1894852 5.65941101,18.8170865 Z" id="Shape" fill="#000000" fill-rule="nonzero"></path>
                    <g id="NEW/icon/svg/mastercard" transform="translate(9.498933, 1.796276)" fill="#FF5F00" fill-rule="nonzero">
                        <rect id="Rectangle" x="5.77760062e-13" y="8.8817842e-16" width="6.58770807" height="12.6643718"></rect>
                    </g>
                    <path d="M9.94280837,7.99561884 C9.94280837,5.47645126 11.1412719,3.24205915 12.9833547,1.79627601 C11.6295348,0.744797371 9.9206146,0.109529025 8.05633803,0.109529025 C3.63977806,0.109529025 0.066581306,3.63636364 0.066581306,7.99561884 C0.066581306,12.354874 3.63977806,15.8817087 8.05633803,15.8817087 C9.9206146,15.8817087 11.6295348,15.2464403 12.9833547,14.1949617 C11.1412719,12.7710843 9.94280837,10.5147864 9.94280837,7.99561884 Z" id="Path" fill="#EB001B" fill-rule="nonzero"></path>
                    <path d="M25.9223218,7.99561884 C25.9223218,12.354874 22.3491251,15.8817087 17.9325651,15.8817087 C16.0682885,15.8817087 14.3593683,15.2464403 13.0055484,14.1949617 C14.869825,12.7491785 16.0460948,10.5147864 16.0460948,7.99561884 C16.0460948,5.47645126 14.8476312,3.24205915 13.0055484,1.79627601 C14.3593683,0.744797371 16.0682885,0.109529025 17.9325651,0.109529025 C22.3491251,0.109529025 25.9223218,3.65826944 25.9223218,7.99561884 Z" id="Path" fill="#F79E1B" fill-rule="nonzero"></path>
                </g>
            </g>
        </g>
    </g>
</svg>