<?xml version="1.0" encoding="UTF-8"?>
<svg width="47px" height="30px" viewBox="0 0 47 30" version="1.1" xmlns="http://www.w3.org/2000/svg" xmlns:xlink="http://www.w3.org/1999/xlink">
    <!-- Generator: Sketch 55.2 (78181) - https://sketchapp.com -->
    <title>icon/credit-card/paypal</title>
    <desc>Created with Sketch.</desc>
    <g id="icon/credit-card/paypal" stroke="none" stroke-width="1" fill="none" fill-rule="evenodd">
        <g id="NEW/icon/credit-card/logo/paypal-no-mark" transform="translate(7.000000, 8.000000)">
            <path d="M11.9790209,5.2322457 L10.7242959,5.2322457 C10.6174103,5.2322457 10.5250122,5.31241477 10.5085931,5.42132578 L10.453004,5.78142587 L10.3653278,5.65093089 C10.0937139,5.24634136 9.4879217,5.11111111 8.88341725,5.11111111 C7.49680231,5.11111111 6.31258314,6.18876846 6.08196357,7.700418 C5.9620929,8.45442575 6.13250886,9.17550691 6.54942698,9.67832558 C6.93178972,10.1406192 7.47888073,10.3333333 8.12974519,10.3333333 C9.2469999,10.3333333 9.86642111,9.5961743 9.86642111,9.5961743 L9.81051008,9.95396183 C9.78947638,10.0907338 9.89217667,10.2134101 10.0258909,10.2134101 L11.1560234,10.2134101 C11.3357758,10.2134101 11.487519,10.0797216 11.5158501,9.89768931 L12.1939725,5.49092311 C12.2154355,5.35525237 12.1130571,5.2322457 11.9790209,5.2322457 Z M10.2300038,7.73818996 C10.1089526,8.47369716 9.54007671,8.96748579 8.81441381,8.96748579 C8.45007996,8.96748579 8.15893482,8.84756255 7.97188507,8.62038013 C7.78644504,8.39473943 7.71604651,8.07351253 7.77496236,7.715725 C7.88807219,6.98649478 8.46649913,6.47651817 9.18110859,6.47651817 C9.53739384,6.47651817 9.82703657,6.59809324 10.0178423,6.82714774 C10.2089701,7.05873505 10.2848416,7.38194415 10.2300038,7.73818996 L10.2300038,7.73818996 Z" id="Fill-2" fill="#28356A"></path>
            <path d="M22.847076,2.66666667 L20.211172,2.66666667 C20.031228,2.66666667 19.8778384,2.80191157 19.8496648,2.98572877 L18.78371,9.96053336 C18.7625528,10.0982292 18.865856,10.2222222 19.0003552,10.2222222 L20.3530114,10.2222222 C20.4785512,10.2222222 20.5860643,10.1276399 20.6057102,9.99874506 L20.9082795,8.02165177 C20.9360213,7.83750035 21.0898426,7.70225545 21.2697866,7.70225545 L22.1037681,7.70225545 C23.8401681,7.70225545 24.8417879,6.83519526 25.1038779,5.11711712 C25.2221854,4.36536045 25.1085195,3.7748059 24.7674139,3.36116149 C24.3931693,2.90696589 23.7292009,2.66666667 22.847076,2.66666667 Z M23.1511565,5.21415032 C23.007374,6.19016398 22.2847915,6.19016398 21.585741,6.19016398 L21.1885042,6.19016398 L21.4678653,4.36736573 C21.4843809,4.25718681 21.5761339,4.17608443 21.6844026,4.17608443 L21.8667213,4.17608443 C22.3422182,4.17608443 22.7915924,4.17608443 23.0235657,4.4560436 C23.161951,4.62303875 23.2039415,4.87124768 23.1511565,5.21415032 L23.1511565,5.21415032 Z" id="Fill-4" fill="#298FC2"></path>
            <path d="M30.7586466,5.2322457 L29.5045968,5.2322457 C29.3969535,5.2322457 29.3054084,5.31241477 29.2893102,5.42132578 L29.2337177,5.78142587 L29.1456069,5.65093089 C28.8739766,5.24634136 28.2685769,5.11111111 27.6639284,5.11111111 C26.2773367,5.11111111 25.093475,6.18876846 24.8628414,7.700418 C24.7432855,8.45442575 24.9129605,9.17550691 25.3297966,9.67832558 C25.7130411,10.1406192 26.2593067,10.3333333 26.910318,10.3333333 C28.0275332,10.3333333 28.6470993,9.5961743 28.6470993,9.5961743 L28.5911848,9.95396183 C28.5701499,10.0907338 28.6727491,10.2134101 28.80733,10.2134101 L29.9372091,10.2134101 C30.1161138,10.2134101 30.2686174,10.0797216 30.2966283,9.89768931 L30.9751138,5.49092311 C30.9958268,5.35525237 30.8931203,5.2322457 30.7586466,5.2322457 Z M29.0096307,7.73818996 C28.8893235,8.47369716 28.3195545,8.96748579 27.5938476,8.96748579 C27.2302429,8.96748579 26.9383289,8.84756255 26.7512678,8.62038013 C26.5659238,8.39473943 26.4961649,8.07351253 26.5543331,7.715725 C26.668201,6.98649478 27.2459118,6.47651817 27.9605646,6.47651817 C28.3168715,6.47651817 28.6065318,6.59809324 28.7973491,6.82714774 C28.9892397,7.05873505 29.0651159,7.38194415 29.0096307,7.73818996 L29.0096307,7.73818996 Z" id="Fill-5" fill="#298FC2"></path>
            <path d="M32.2623808,2.8583851 L31.1963707,9.96054494 C31.1755207,10.0982346 31.2772177,10.2222222 31.4097642,10.2222222 L32.4815188,10.2222222 C32.6597013,10.2222222 32.8107575,10.0870947 32.8380965,9.90295143 L33.8893202,2.92878955 C33.9102766,2.79109984 33.8084732,2.66666667 33.6759267,2.66666667 L32.4758807,2.66666667 C32.3699286,2.66700086 32.278763,2.74821106 32.2623808,2.8583851" id="Fill-6" fill="#298FC2"></path>
            <path d="M4.06603919,2.66666667 L1.43058336,2.66666667 C1.25021612,2.66666667 1.0968338,2.80191157 1.06866153,2.98572877 L0.00275695109,9.96053336 C-0.018399231,10.0982292 0.0848990662,10.2222222 0.220147516,10.2222222 L1.47829271,10.2222222 C1.65865996,10.2222222 1.81204228,10.0870887 1.84021454,9.90293731 L2.12765797,8.02165177 C2.15539848,7.83750035 2.30910462,7.70225545 2.48914804,7.70225545 L3.32341402,7.70225545 C5.05940829,7.70225545 6.06130463,6.83519526 6.32305841,5.11711712 C6.44092857,4.36536045 6.32802364,3.7748059 5.98693417,3.36116149 C5.61238339,2.90696589 4.94801451,2.66666667 4.06603919,2.66666667 Z M4.3699974,5.21415032 C4.22589789,6.19016398 3.50334951,6.19016398 2.80476374,6.19016398 L2.40700593,6.19016398 L2.68603007,4.36736573 C2.70265278,4.25718681 2.79504917,4.17608443 2.90298887,4.17608443 L3.08529903,4.17608443 C3.56120519,4.17608443 4.01012642,4.17608443 4.24208885,4.4560436 C4.38046755,4.62303875 4.42277991,4.87124768 4.3699974,5.21415032 L4.3699974,5.21415032 Z" id="Fill-1" fill="#28356A"></path>
            <path d="M18.7750441,5.22222222 L17.4958477,5.22222222 C17.3738069,5.22222222 17.2591691,5.28405131 17.1900381,5.3875068 L15.4258357,8.03705523 L14.6780229,5.49085129 C14.630992,5.33156091 14.486851,5.22222222 14.3235494,5.22222222 L13.0666708,5.22222222 C12.9138204,5.22222222 12.8077832,5.37440836 12.8563383,5.52104431 L14.2653051,9.73674461 L12.9407108,11.643345 C12.8365243,11.793533 12.9414729,12 13.1214313,12 L14.3989947,12 C14.5202734,12 14.6337137,11.939725 14.7025181,11.8383785 L18.9568533,5.57687919 C19.0587536,5.42713514 18.9541316,5.22222222 18.7750441,5.22222222" id="Fill-3" fill="#28356A"></path>
        </g>
    </g>
</svg>