<svg xmlns="http://www.w3.org/2000/svg" width="25" height="25" viewBox="0 0 25 25">
    <path fill="#1A1A1A" fill-rule="nonzero" d="M12.5 0C5.597 0 0 5.592 0 12.49c0 5.294 3.292 9.817 7.942 11.636-.113-.986-.206-2.508.041-3.587.227-.977 1.461-6.21 1.461-6.21s-.37-.75-.37-1.85c0-1.737 1.008-3.032 2.263-3.032 1.07 0 1.585.802 1.585 1.758 0 1.069-.68 2.672-1.039 4.163-.299 1.244.627 2.262 1.852 2.262 2.222 0 3.93-2.344 3.93-5.716 0-2.991-2.15-5.078-5.227-5.078-3.56 0-5.648 2.662-5.648 5.417 0 1.07.412 2.22.926 2.848a.371.371 0 0 1 .082.36c-.092.39-.308 1.243-.35 1.418-.05.226-.184.278-.421.164-1.564-.73-2.541-3.001-2.541-4.84 0-3.938 2.86-7.557 8.26-7.557 4.332 0 7.706 3.084 7.706 7.217 0 4.307-2.716 7.771-6.48 7.771-1.266 0-2.46-.658-2.86-1.44l-.783 2.972c-.278 1.09-1.039 2.446-1.553 3.279 1.172.36 2.407.555 3.703.555 6.904 0 12.5-5.592 12.5-12.49C25 5.592 19.403 0 12.5 0"/>
</svg>
