<?xml version="1.0" encoding="UTF-8"?>
<svg width="398px" height="64px" viewBox="0 0 398 64" version="1.1" xmlns="http://www.w3.org/2000/svg" xmlns:xlink="http://www.w3.org/1999/xlink">
    <!-- Generator: Sketch 57.1 (83088) - https://sketch.com -->
    <title>PLCC lockup 1 point - Outlines</title>
    <desc>Created with Sketch.</desc>
    <g id="Desktop---Account-mpr-credit-card" stroke="none" stroke-width="1" fill="none" fill-rule="evenodd">
        <g id="Desktop---Lockup-Export" transform="translate(-56.000000, -390.000000)">
            <g id="PLCC-lockup-1-point---Outlines" transform="translate(56.000000, 390.000000)">
                <path d="M327.772,55.416 C327.932001,55.6506678 328.012,55.8799989 328.012,56.104 C328.012,56.4026682 327.892001,56.647999 327.652,56.84 C327.411999,57.032001 327.132002,57.128 326.812,57.128 C326.609332,57.128 326.412001,57.0800005 326.22,56.984 C326.027999,56.8879995 325.868001,56.7386677 325.74,56.536 L323.628,53.4 C323.446666,53.1226653 323.254668,52.9226673 323.052,52.8 C322.849332,52.6773327 322.593335,52.616 322.284,52.616 L320.988,52.616 L320.988,55.848 C320.988,56.2320019 320.878668,56.5359989 320.66,56.76 C320.441332,56.9840011 320.145335,57.096 319.772,57.096 C319.387998,57.096 319.084001,56.9840011 318.86,56.76 C318.635999,56.5359989 318.524,56.2320019 318.524,55.848 L318.524,46.888 C318.524,46.5146648 318.625332,46.2266677 318.828,46.024 C319.030668,45.8213323 319.318665,45.72 319.692,45.72 L323.708,45.72 C325.030673,45.72 326.030663,46.0106638 326.708,46.592 C327.385337,47.1733362 327.724,48.0133278 327.724,49.112 C327.724,49.9760043 327.484002,50.6959971 327.004,51.272 C326.524,51.8480029 325.846671,52.2266658 324.972,52.408 C325.292002,52.4720003 325.577332,52.5973324 325.828,52.784 C326.078668,52.9706676 326.321332,53.2399982 326.556,53.592 L327.772,55.416 Z M323.34,50.728 C324.05467,50.728 324.571998,50.6026679 324.892,50.352 C325.212002,50.1013321 325.372,49.709336 325.372,49.176 C325.372,48.6319973 325.212002,48.2373346 324.892,47.992 C324.571998,47.7466654 324.05467,47.624 323.34,47.624 L320.956,47.624 L320.956,50.728 L323.34,50.728 Z M330.908,57 C330.534665,57 330.246668,56.8986677 330.044,56.696 C329.841332,56.4933323 329.74,56.2053352 329.74,55.832 L329.74,46.888 C329.74,46.5146648 329.841332,46.2266677 330.044,46.024 C330.246668,45.8213323 330.534665,45.72 330.908,45.72 L336.572,45.72 C337.361337,45.72 337.756,46.0399968 337.756,46.68 C337.756,47.3306699 337.361337,47.656 336.572,47.656 L332.172,47.656 L332.172,50.296 L336.252,50.296 C337.041337,50.296 337.436,50.6213301 337.436,51.272 C337.436,51.9120032 337.041337,52.232 336.252,52.232 L332.172,52.232 L332.172,55.064 L336.572,55.064 C337.361337,55.064 337.756,55.3893301 337.756,56.04 C337.756,56.6800032 337.361337,57 336.572,57 L330.908,57 Z M353.276,46.392 C353.372,46.1359987 353.518666,45.941334 353.716,45.808 C353.913334,45.674666 354.134665,45.608 354.38,45.608 C354.689335,45.608 354.953332,45.703999 355.172,45.896 C355.390668,46.088001 355.5,46.3493317 355.5,46.68 C355.5,46.8400008 355.468,47.015999 355.404,47.208 L352.076,56.312 C351.98,56.5680013 351.812001,56.7679993 351.572,56.912 C351.331999,57.0560007 351.068001,57.128 350.78,57.128 C350.491999,57.128 350.230668,57.0560007 349.996,56.912 C349.761332,56.7679993 349.596,56.5680013 349.5,56.312 L347.116,49.576 L344.668,56.312 C344.572,56.5680013 344.406668,56.7679993 344.172,56.912 C343.937332,57.0560007 343.676001,57.128 343.388,57.128 C343.110665,57.128 342.852001,57.0560007 342.612,56.912 C342.371999,56.7679993 342.204,56.5680013 342.108,56.312 L338.78,47.208 C338.716,47.0266658 338.684,46.8560008 338.684,46.696 C338.684,46.3653317 338.801332,46.1013343 339.036,45.904 C339.270668,45.7066657 339.547998,45.608 339.868,45.608 C340.124001,45.608 340.355999,45.674666 340.564,45.808 C340.772001,45.941334 340.924,46.1359987 341.02,46.392 L343.484,53.48 L346.044,46.424 C346.14,46.1679987 346.291999,45.9706674 346.5,45.832 C346.708001,45.6933326 346.929332,45.624 347.164,45.624 C347.409335,45.624 347.633332,45.6933326 347.836,45.832 C348.038668,45.9706674 348.188,46.173332 348.284,46.44 L350.732,53.608 L353.276,46.392 Z M366.524,55.48 C366.609334,55.672001 366.652,55.8426659 366.652,55.992 C366.652,56.2906682 366.532001,56.543999 366.292,56.752 C366.051999,56.960001 365.777335,57.064 365.468,57.064 C365.265332,57.064 365.073334,57.0080006 364.892,56.896 C364.710666,56.7839994 364.572,56.6160011 364.476,56.392 L363.628,54.504 L358.204,54.504 L357.356,56.392 C357.26,56.6160011 357.124001,56.7839994 356.948,56.896 C356.771999,57.0080006 356.577334,57.064 356.364,57.064 C356.054665,57.064 355.777335,56.960001 355.532,56.752 C355.286665,56.543999 355.164,56.2906682 355.164,55.992 C355.164,55.8426659 355.206666,55.672001 355.292,55.48 L359.612,46.408 C359.729334,46.1519987 359.905332,45.957334 360.14,45.824 C360.374668,45.690666 360.625332,45.624 360.892,45.624 C361.169335,45.624 361.425332,45.6933326 361.66,45.832 C361.894668,45.9706674 362.075999,46.1626654 362.204,46.408 L366.524,55.48 Z M359.052,52.616 L362.78,52.616 L360.924,48.456 L359.052,52.616 Z M377.276,55.416 C377.436001,55.6506678 377.516,55.8799989 377.516,56.104 C377.516,56.4026682 377.396001,56.647999 377.156,56.84 C376.915999,57.032001 376.636002,57.128 376.316,57.128 C376.113332,57.128 375.916001,57.0800005 375.724,56.984 C375.531999,56.8879995 375.372001,56.7386677 375.244,56.536 L373.132,53.4 C372.950666,53.1226653 372.758668,52.9226673 372.556,52.8 C372.353332,52.6773327 372.097335,52.616 371.788,52.616 L370.492,52.616 L370.492,55.848 C370.492,56.2320019 370.382668,56.5359989 370.164,56.76 C369.945332,56.9840011 369.649335,57.096 369.276,57.096 C368.891998,57.096 368.588001,56.9840011 368.364,56.76 C368.139999,56.5359989 368.028,56.2320019 368.028,55.848 L368.028,46.888 C368.028,46.5146648 368.129332,46.2266677 368.332,46.024 C368.534668,45.8213323 368.822665,45.72 369.196,45.72 L373.212,45.72 C374.534673,45.72 375.534663,46.0106638 376.212,46.592 C376.889337,47.1733362 377.228,48.0133278 377.228,49.112 C377.228,49.9760043 376.988002,50.6959971 376.508,51.272 C376.028,51.8480029 375.350671,52.2266658 374.476,52.408 C374.796002,52.4720003 375.081332,52.5973324 375.332,52.784 C375.582668,52.9706676 375.825332,53.2399982 376.06,53.592 L377.276,55.416 Z M372.844,50.728 C373.55867,50.728 374.075998,50.6026679 374.396,50.352 C374.716002,50.1013321 374.876,49.709336 374.876,49.176 C374.876,48.6319973 374.716002,48.2373346 374.396,47.992 C374.075998,47.7466654 373.55867,47.624 372.844,47.624 L370.46,47.624 L370.46,50.728 L372.844,50.728 Z M380.412,57 C380.038665,57 379.750668,56.8986677 379.548,56.696 C379.345332,56.4933323 379.244,56.2053352 379.244,55.832 L379.244,46.888 C379.244,46.5146648 379.345332,46.2266677 379.548,46.024 C379.750668,45.8213323 380.038665,45.72 380.412,45.72 L383.628,45.72 C384.854673,45.72 385.910662,45.9439978 386.796,46.392 C387.681338,46.8400022 388.358664,47.4853291 388.828,48.328 C389.297336,49.1706709 389.532,50.1786608 389.532,51.352 C389.532,52.5253392 389.300002,53.5359958 388.836,54.384 C388.371998,55.2320042 387.697338,55.8799978 386.812,56.328 C385.926662,56.7760022 384.86534,57 383.628,57 L380.412,57 Z M383.452,54.984 C385.852012,54.984 387.052,53.7733454 387.052,51.352 C387.052,48.9413213 385.852012,47.736 383.452,47.736 L381.74,47.736 L381.74,54.984 L383.452,54.984 Z M396.524,47.832 C396.758668,47.8213333 396.942666,47.8959992 397.076,48.056 C397.209334,48.2160008 397.276,48.4026656 397.276,48.616 C397.276,48.8400011 397.209334,49.0319992 397.076,49.192 C396.942666,49.3520008 396.758668,49.4266667 396.524,49.416 L395.196,49.336 L395.932,50.44 C396.017334,50.5786674 396.06,50.7066661 396.06,50.824 C396.06,51.0373344 395.964001,51.2239992 395.772,51.384 C395.579999,51.5440008 395.372001,51.624 395.148,51.624 C394.870665,51.624 394.673334,51.4960013 394.556,51.24 L393.964,50.04 L393.372,51.24 C393.254666,51.4960013 393.052001,51.624 392.764,51.624 C392.539999,51.624 392.334668,51.5440008 392.148,51.384 C391.961332,51.2239992 391.868,51.0373344 391.868,50.824 C391.868,50.7066661 391.910666,50.5786674 391.996,50.44 L392.732,49.336 L391.404,49.416 C391.169332,49.4266667 390.985334,49.3520008 390.852,49.192 C390.718666,49.0319992 390.652,48.8453344 390.652,48.632 C390.652,48.4079989 390.718666,48.2160008 390.852,48.056 C390.985334,47.8959992 391.169332,47.8213333 391.404,47.832 L392.732,47.912 L391.996,46.808 C391.910666,46.6906661 391.868,46.5626674 391.868,46.424 C391.868,46.2106656 391.961332,46.0293341 392.148,45.88 C392.334668,45.7306659 392.539999,45.656 392.764,45.656 C393.041335,45.656 393.243999,45.7786654 393.372,46.024 L393.964,47.224 L394.556,46.024 C394.694667,45.7679987 394.902665,45.64 395.18,45.64 C395.393334,45.64 395.593332,45.7173326 395.78,45.872 C395.966668,46.0266674 396.06,46.2106656 396.06,46.424 C396.06,46.5413339 396.017334,46.6693326 395.932,46.808 L395.196,47.912 L396.524,47.832 Z" id="REWARD*" fill="#000000" fill-rule="nonzero"></path>
                <path d="M219.396,57.144 C218.553329,57.144 217.769337,57.0453343 217.044,56.848 C216.318663,56.6506657 215.726669,56.3706685 215.268,56.008 C215.107999,55.8906661 214.993334,55.765334 214.924,55.632 C214.854666,55.498666 214.82,55.3306677 214.82,55.128 C214.82,54.861332 214.902666,54.6266677 215.068,54.424 C215.233334,54.2213323 215.422666,54.12 215.636,54.12 C215.753334,54.12 215.867999,54.1386665 215.98,54.176 C216.092001,54.2133335 216.227999,54.2799995 216.388,54.376 C216.846669,54.6640014 217.310664,54.874666 217.78,55.008 C218.249336,55.141334 218.766664,55.208 219.332,55.208 C220.036004,55.208 220.574665,55.0906678 220.948,54.856 C221.321335,54.6213322 221.508,54.2853355 221.508,53.848 C221.508,53.5173317 221.334668,53.2506677 220.988,53.048 C220.641332,52.8453323 220.025338,52.6533342 219.14,52.472 C218.147995,52.2693323 217.356003,52.0240014 216.764,51.736 C216.171997,51.4479986 215.740001,51.0906688 215.468,50.664 C215.195999,50.2373312 215.06,49.720003 215.06,49.112 C215.06,48.4399966 215.254665,47.8346694 215.644,47.296 C216.033335,46.7573306 216.571997,46.3360015 217.26,46.032 C217.948003,45.7279985 218.723996,45.576 219.588,45.576 C221.102674,45.576 222.350662,45.9546629 223.332,46.712 C223.492001,46.8400006 223.606666,46.970666 223.676,47.104 C223.745334,47.237334 223.78,47.399999 223.78,47.592 C223.78,47.858668 223.697334,48.0933323 223.532,48.296 C223.366666,48.4986677 223.177334,48.6 222.964,48.6 C222.846666,48.6 222.737334,48.5840002 222.636,48.552 C222.534666,48.5199998 222.393334,48.4506672 222.212,48.344 C221.774664,48.0666653 221.372002,47.8586674 221.004,47.72 C220.635998,47.5813326 220.169336,47.512 219.604,47.512 C218.95333,47.512 218.441335,47.6373321 218.068,47.888 C217.694665,48.1386679 217.508,48.4826645 217.508,48.92 C217.508,49.1760013 217.579999,49.3866658 217.724,49.552 C217.868001,49.7173342 218.107998,49.8639994 218.444,49.992 C218.780002,50.1200006 219.25733,50.2533326 219.876,50.392 C221.326674,50.7120016 222.36933,51.1226642 223.004,51.624 C223.63867,52.1253358 223.956,52.813329 223.956,53.688 C223.956,54.3706701 223.766669,54.9733307 223.388,55.496 C223.009331,56.0186693 222.476003,56.4239986 221.788,56.712 C221.099997,57.0000014 220.302671,57.144 219.396,57.144 Z M226.996,57.096 C226.611998,57.096 226.308001,56.9840011 226.084,56.76 C225.859999,56.5359989 225.748,56.2320019 225.748,55.848 L225.748,46.888 C225.748,46.5146648 225.849332,46.2266677 226.052,46.024 C226.254668,45.8213323 226.542665,45.72 226.916,45.72 L230.932,45.72 C232.158673,45.72 233.11333,46.0293302 233.796,46.648 C234.47867,47.2666698 234.82,48.1306611 234.82,49.24 C234.82,50.3493389 234.47867,51.2133302 233.796,51.832 C233.11333,52.4506698 232.158673,52.76 230.932,52.76 L228.244,52.76 L228.244,55.848 C228.244,56.2320019 228.132001,56.5359989 227.908,56.76 C227.683999,56.9840011 227.380002,57.096 226.996,57.096 Z M230.612,50.872 C231.860006,50.872 232.484,50.3333387 232.484,49.256 C232.484,48.1679946 231.860006,47.624 230.612,47.624 L228.244,47.624 L228.244,50.872 L230.612,50.872 Z M237.604,57 C237.230665,57 236.942668,56.8986677 236.74,56.696 C236.537332,56.4933323 236.436,56.2053352 236.436,55.832 L236.436,46.888 C236.436,46.5146648 236.537332,46.2266677 236.74,46.024 C236.942668,45.8213323 237.230665,45.72 237.604,45.72 L243.268,45.72 C244.057337,45.72 244.452,46.0399968 244.452,46.68 C244.452,47.3306699 244.057337,47.656 243.268,47.656 L238.868,47.656 L238.868,50.296 L242.948,50.296 C243.737337,50.296 244.132,50.6213301 244.132,51.272 C244.132,51.9120032 243.737337,52.232 242.948,52.232 L238.868,52.232 L238.868,55.064 L243.268,55.064 C244.057337,55.064 244.452,55.3893301 244.452,56.04 C244.452,56.6800032 244.057337,57 243.268,57 L237.604,57 Z M254.532,45.64 C254.884002,45.64 255.169332,45.7546655 255.388,45.984 C255.606668,46.2133345 255.716,46.5093315 255.716,46.872 L255.716,55.848 C255.716,56.2213352 255.606668,56.5226655 255.388,56.752 C255.169332,56.9813345 254.884002,57.096 254.532,57.096 C254.147998,57.096 253.838668,56.9573347 253.604,56.68 L248.244,49.816 L248.244,55.848 C248.244,56.2213352 248.140001,56.5226655 247.932,56.752 C247.723999,56.9813345 247.444002,57.096 247.092,57.096 C246.739998,57.096 246.457334,56.9813345 246.244,56.752 C246.030666,56.5226655 245.924,56.2213352 245.924,55.848 L245.924,46.872 C245.924,46.5093315 246.033332,46.2133345 246.252,45.984 C246.470668,45.7546655 246.755998,45.64 247.108,45.64 C247.502669,45.64 247.806666,45.7786653 248.02,46.056 L253.38,52.872 L253.38,46.872 C253.38,46.5093315 253.486666,46.2133345 253.7,45.984 C253.913334,45.7546655 254.190665,45.64 254.532,45.64 Z M261.812,57.08 C261.438665,57.08 261.137334,56.9680011 260.908,56.744 C260.678666,56.5199989 260.564,56.2213352 260.564,55.848 L260.564,47.752 L257.972,47.752 C257.182663,47.752 256.788,47.4106701 256.788,46.728 C256.788,46.0559966 257.182663,45.72 257.972,45.72 L265.652,45.72 C266.441337,45.72 266.836,46.0559966 266.836,46.728 C266.836,47.4106701 266.441337,47.752 265.652,47.752 L263.06,47.752 L263.06,55.848 C263.06,56.2213352 262.948001,56.5199989 262.724,56.744 C262.499999,56.9680011 262.196002,57.08 261.812,57.08 Z" id="SPENT" fill="#1A1A1A" fill-rule="nonzero"></path>
                <path d="M357.728,24.64 C357.728,26.7680106 356.961674,28.6236588 355.429,30.207 C353.896326,31.7903413 351.711348,32.8353308 348.874,33.342 L348.874,37.56 L343.516,37.56 L343.516,33.532 C341.615991,33.4306662 339.798342,33.1393357 338.063,32.658 C336.327658,32.1766643 334.890006,31.5813369 333.75,30.872 L336.638,24.336 C337.904673,25.0706703 339.323325,25.6596645 340.894,26.103 C342.464675,26.5463356 343.971993,26.768 345.416,26.768 C346.65734,26.768 347.543997,26.6476679 348.076,26.407 C348.608003,26.1663321 348.874,25.8053357 348.874,25.324 C348.874,24.7666639 348.52567,24.3486681 347.829,24.07 C347.13233,23.7913319 345.986008,23.487335 344.39,23.158 C342.33799,22.7273312 340.628007,22.2650025 339.26,21.771 C337.891993,21.2769975 336.701338,20.466339 335.688,19.339 C334.674662,18.211661 334.168,16.685343 334.168,14.76 C334.168,12.5306555 334.972325,10.618008 336.581,9.022 C338.189675,7.42599202 340.501318,6.41266882 343.516,5.982 L343.516,1.84 L348.874,1.84 L348.874,5.906 C351.914015,6.18466806 354.485323,6.91932738 356.588,8.11 L353.89,14.608 C351.280654,13.2906601 348.810678,12.632 346.48,12.632 C344.174655,12.632 343.022,13.1893278 343.022,14.304 C343.022,14.8360027 343.363997,15.2349987 344.048,15.501 C344.732003,15.7670013 345.859325,16.0519985 347.43,16.356 C349.456677,16.7360019 351.16666,17.1729975 352.56,17.667 C353.95334,18.1610025 355.162995,18.9653278 356.189,20.08 C357.215005,21.1946722 357.728,22.714657 357.728,24.64 Z M370.192,15.786 C373.916019,15.786 376.658325,16.5649922 378.419,18.123 C380.179675,19.6810078 381.06,21.726654 381.06,24.26 C381.06,25.9320084 380.623004,27.470993 379.749,28.877 C378.874996,30.283007 377.526009,31.4229956 375.702,32.297 C373.877991,33.1710044 371.61068,33.608 368.9,33.608 C367.025324,33.608 365.157009,33.4053354 363.295,33 C361.432991,32.5946646 359.80534,31.9993373 358.412,31.214 L361.452,24.602 C362.566672,25.2353365 363.738327,25.716665 364.967,26.046 C366.195673,26.375335 367.392661,26.54 368.558,26.54 C369.596672,26.54 370.438997,26.3563352 371.085,25.989 C371.731003,25.6216648 372.054,25.10867 372.054,24.45 C372.054,23.8166635 371.76267,23.3416683 371.18,23.025 C370.59733,22.7083318 369.546008,22.55 368.026,22.55 L360.312,22.55 L361.642,6.4 L379.312,6.4 L379.312,13.164 L369.014,13.164 L368.824,15.786 L370.192,15.786 Z" id="$5" fill="#000000" fill-rule="nonzero"></path>
                <path d="M290.31,12.53 L309.69,12.53 L309.69,18.99 L290.31,18.99 L290.31,12.53 Z M290.31,22.41 L309.69,22.41 L309.69,28.87 L290.31,28.87 L290.31,22.41 Z" id="=" fill="#000000" fill-rule="nonzero"></path>
                <path d="M219.98,6.4 L219.98,33 L211.012,33 L211.012,13.164 L206.452,13.164 L206.452,6.4 L219.98,6.4 Z M235.294,33.608 C232.937988,33.608 230.854342,33.0570055 229.043,31.955 C227.231658,30.8529945 225.813005,29.2570104 224.787,27.167 C223.760995,25.0769895 223.248,22.5880144 223.248,19.7 C223.248,16.8119856 223.760995,14.3230104 224.787,12.233 C225.813005,10.1429895 227.231658,8.54700551 229.043,7.445 C230.854342,6.34299449 232.937988,5.792 235.294,5.792 C237.650012,5.792 239.733658,6.34299449 241.545,7.445 C243.356342,8.54700551 244.774995,10.1429895 245.801,12.233 C246.827005,14.3230104 247.34,16.8119856 247.34,19.7 C247.34,22.5880144 246.827005,25.0769895 245.801,27.167 C244.774995,29.2570104 243.356342,30.8529945 241.545,31.955 C239.733658,33.0570055 237.650012,33.608 235.294,33.608 Z M235.294,26.426 C237.320677,26.426 238.334,24.1840224 238.334,19.7 C238.334,15.2159776 237.320677,12.974 235.294,12.974 C233.267323,12.974 232.254,15.2159776 232.254,19.7 C232.254,24.1840224 233.267323,26.426 235.294,26.426 Z M261.59,33.608 C259.233988,33.608 257.150342,33.0570055 255.339,31.955 C253.527658,30.8529945 252.109005,29.2570104 251.083,27.167 C250.056995,25.0769895 249.544,22.5880144 249.544,19.7 C249.544,16.8119856 250.056995,14.3230104 251.083,12.233 C252.109005,10.1429895 253.527658,8.54700551 255.339,7.445 C257.150342,6.34299449 259.233988,5.792 261.59,5.792 C263.946012,5.792 266.029658,6.34299449 267.841,7.445 C269.652342,8.54700551 271.070995,10.1429895 272.097,12.233 C273.123005,14.3230104 273.636,16.8119856 273.636,19.7 C273.636,22.5880144 273.123005,25.0769895 272.097,27.167 C271.070995,29.2570104 269.652342,30.8529945 267.841,31.955 C266.029658,33.0570055 263.946012,33.608 261.59,33.608 Z M261.59,26.426 C263.616677,26.426 264.63,24.1840224 264.63,19.7 C264.63,15.2159776 263.616677,12.974 261.59,12.974 C259.563323,12.974 258.55,15.2159776 258.55,19.7 C258.55,24.1840224 259.563323,26.426 261.59,26.426 Z" id="100" fill="#000000" fill-rule="nonzero"></path>
                <g id="elements/header-divider" transform="translate(181.000000, 32.000000) rotate(90.000000) translate(-181.000000, -32.000000) translate(149.000000, 31.000000)" fill="#666666">
                    <rect id="Rectangle" x="0" y="0" width="64" height="2"></rect>
                </g>
                <path d="M102.868,57.096 C102.483998,57.096 102.180001,56.9840011 101.956,56.76 C101.731999,56.5359989 101.62,56.2320019 101.62,55.848 L101.62,46.888 C101.62,46.5146648 101.721332,46.2266677 101.924,46.024 C102.126668,45.8213323 102.414665,45.72 102.788,45.72 L106.804,45.72 C108.030673,45.72 108.98533,46.0293302 109.668,46.648 C110.35067,47.2666698 110.692,48.1306611 110.692,49.24 C110.692,50.3493389 110.35067,51.2133302 109.668,51.832 C108.98533,52.4506698 108.030673,52.76 106.804,52.76 L104.116,52.76 L104.116,55.848 C104.116,56.2320019 104.004001,56.5359989 103.78,56.76 C103.555999,56.9840011 103.252002,57.096 102.868,57.096 Z M106.484,50.872 C107.732006,50.872 108.356,50.3333387 108.356,49.256 C108.356,48.1679946 107.732006,47.624 106.484,47.624 L104.116,47.624 L104.116,50.872 L106.484,50.872 Z M117.492,57.144 C116.371994,57.144 115.398671,56.906669 114.572,56.432 C113.745329,55.957331 113.108002,55.2853377 112.66,54.416 C112.211998,53.5466623 111.988,52.5253392 111.988,51.352 C111.988,50.1786608 112.211998,49.1573377 112.66,48.288 C113.108002,47.4186623 113.745329,46.7493357 114.572,46.28 C115.398671,45.8106643 116.371994,45.576 117.492,45.576 C118.612006,45.576 119.585329,45.8106643 120.412,46.28 C121.238671,46.7493357 121.875998,47.4186623 122.324,48.288 C122.772002,49.1573377 122.996,50.1786608 122.996,51.352 C122.996,52.5253392 122.772002,53.5466623 122.324,54.416 C121.875998,55.2853377 121.238671,55.957331 120.412,56.432 C119.585329,56.906669 118.612006,57.144 117.492,57.144 Z M117.492,55.208 C118.430671,55.208 119.169331,54.8773366 119.708,54.216 C120.246669,53.5546634 120.516,52.6000062 120.516,51.352 C120.516,50.1039938 120.249336,49.1520033 119.716,48.496 C119.182664,47.8399967 118.441338,47.512 117.492,47.512 C116.542662,47.512 115.804003,47.8399967 115.276,48.496 C114.747997,49.1520033 114.484,50.1039938 114.484,51.352 C114.484,52.6000062 114.750664,53.5546634 115.284,54.216 C115.817336,54.8773366 116.553329,55.208 117.492,55.208 Z M126.148,57.096 C125.763998,57.096 125.460001,56.9840011 125.236,56.76 C125.011999,56.5359989 124.9,56.2320019 124.9,55.848 L124.9,46.872 C124.9,46.4986648 125.011999,46.2000011 125.236,45.976 C125.460001,45.7519989 125.763998,45.64 126.148,45.64 C126.532002,45.64 126.835999,45.7519989 127.06,45.976 C127.284001,46.2000011 127.396,46.4986648 127.396,46.872 L127.396,55.848 C127.396,56.2320019 127.284001,56.5359989 127.06,56.76 C126.835999,56.9840011 126.532002,57.096 126.148,57.096 Z M138.244,45.64 C138.596002,45.64 138.881332,45.7546655 139.1,45.984 C139.318668,46.2133345 139.428,46.5093315 139.428,46.872 L139.428,55.848 C139.428,56.2213352 139.318668,56.5226655 139.1,56.752 C138.881332,56.9813345 138.596002,57.096 138.244,57.096 C137.859998,57.096 137.550668,56.9573347 137.316,56.68 L131.956,49.816 L131.956,55.848 C131.956,56.2213352 131.852001,56.5226655 131.644,56.752 C131.435999,56.9813345 131.156002,57.096 130.804,57.096 C130.451998,57.096 130.169334,56.9813345 129.956,56.752 C129.742666,56.5226655 129.636,56.2213352 129.636,55.848 L129.636,46.872 C129.636,46.5093315 129.745332,46.2133345 129.964,45.984 C130.182668,45.7546655 130.467998,45.64 130.82,45.64 C131.214669,45.64 131.518666,45.7786653 131.732,46.056 L137.092,52.872 L137.092,46.872 C137.092,46.5093315 137.198666,46.2133345 137.412,45.984 C137.625334,45.7546655 137.902665,45.64 138.244,45.64 Z M145.524,57.08 C145.150665,57.08 144.849334,56.9680011 144.62,56.744 C144.390666,56.5199989 144.276,56.2213352 144.276,55.848 L144.276,47.752 L141.684,47.752 C140.894663,47.752 140.5,47.4106701 140.5,46.728 C140.5,46.0559966 140.894663,45.72 141.684,45.72 L149.364,45.72 C150.153337,45.72 150.548,46.0559966 150.548,46.728 C150.548,47.4106701 150.153337,47.752 149.364,47.752 L146.772,47.752 L146.772,55.848 C146.772,56.2213352 146.660001,56.5199989 146.436,56.744 C146.211999,56.9680011 145.908002,57.08 145.524,57.08 Z" id="POINT" fill="#717171" fill-rule="nonzero"></path>
                <polygon id="1" fill="#888888" fill-rule="nonzero" points="130.776 6.4 130.776 33 121.808 33 121.808 13.164 117.248 13.164 117.248 6.4"></polygon>
                <path d="M68.31,12.53 L87.69,12.53 L87.69,18.99 L68.31,18.99 L68.31,12.53 Z M68.31,22.41 L87.69,22.41 L87.69,28.87 L68.31,28.87 L68.31,22.41 Z" id="=" fill="#1E1E1E" fill-rule="nonzero"></path>
                <path d="M5.396,57.144 C4.55332912,57.144 3.76933696,57.0453343 3.044,56.848 C2.31866304,56.6506657 1.72666896,56.3706685 1.268,56.008 C1.1079992,55.8906661 0.99333368,55.765334 0.924,55.632 C0.85466632,55.498666 0.82,55.3306677 0.82,55.128 C0.82,54.861332 0.90266584,54.6266677 1.068,54.424 C1.23333416,54.2213323 1.4226656,54.12 1.636,54.12 C1.75333392,54.12 1.86799944,54.1386665 1.98,54.176 C2.09200056,54.2133335 2.2279992,54.2799995 2.388,54.376 C2.84666896,54.6640014 3.31066432,54.874666 3.78,55.008 C4.24933568,55.141334 4.76666384,55.208 5.332,55.208 C6.03600352,55.208 6.5746648,55.0906678 6.948,54.856 C7.3213352,54.6213322 7.508,54.2853355 7.508,53.848 C7.508,53.5173317 7.3346684,53.2506677 6.988,53.048 C6.6413316,52.8453323 6.02533776,52.6533342 5.14,52.472 C4.14799504,52.2693323 3.35600296,52.0240014 2.764,51.736 C2.17199704,51.4479986 1.74000136,51.0906688 1.468,50.664 C1.19599864,50.2373312 1.06,49.720003 1.06,49.112 C1.06,48.4399966 1.25466472,47.8346694 1.644,47.296 C2.03333528,46.7573306 2.57199656,46.3360015 3.26,46.032 C3.94800344,45.7279985 4.72399568,45.576 5.588,45.576 C7.10267424,45.576 8.35066176,45.9546629 9.332,46.712 C9.4920008,46.8400006 9.60666632,46.970666 9.676,47.104 C9.74533368,47.237334 9.78,47.399999 9.78,47.592 C9.78,47.858668 9.69733416,48.0933323 9.532,48.296 C9.36666584,48.4986677 9.1773344,48.6 8.964,48.6 C8.84666608,48.6 8.73733384,48.5840002 8.636,48.552 C8.53466616,48.5199998 8.39333424,48.4506672 8.212,48.344 C7.77466448,48.0666653 7.37200184,47.8586674 7.004,47.72 C6.63599816,47.5813326 6.16933616,47.512 5.604,47.512 C4.95333008,47.512 4.4413352,47.6373321 4.068,47.888 C3.6946648,48.1386679 3.508,48.4826645 3.508,48.92 C3.508,49.1760013 3.57999928,49.3866658 3.724,49.552 C3.86800072,49.7173342 4.10799832,49.8639994 4.444,49.992 C4.78000168,50.1200006 5.25733024,50.2533326 5.876,50.392 C7.32667392,50.7120016 8.36933016,51.1226642 9.004,51.624 C9.63866984,52.1253358 9.956,52.813329 9.956,53.688 C9.956,54.3706701 9.76666856,54.9733307 9.388,55.496 C9.00933144,56.0186693 8.47600344,56.4239986 7.788,56.712 C7.09999656,57.0000014 6.3026712,57.144 5.396,57.144 Z M12.996,57.096 C12.6119981,57.096 12.3080011,56.9840011 12.084,56.76 C11.8599989,56.5359989 11.748,56.2320019 11.748,55.848 L11.748,46.888 C11.748,46.5146648 11.8493323,46.2266677 12.052,46.024 C12.2546677,45.8213323 12.5426648,45.72 12.916,45.72 L16.932,45.72 C18.1586728,45.72 19.1133299,46.0293302 19.796,46.648 C20.4786701,47.2666698 20.82,48.1306611 20.82,49.24 C20.82,50.3493389 20.4786701,51.2133302 19.796,51.832 C19.1133299,52.4506698 18.1586728,52.76 16.932,52.76 L14.244,52.76 L14.244,55.848 C14.244,56.2320019 14.1320011,56.5359989 13.908,56.76 C13.6839989,56.9840011 13.3800019,57.096 12.996,57.096 Z M16.612,50.872 C17.8600062,50.872 18.484,50.3333387 18.484,49.256 C18.484,48.1679946 17.8600062,47.624 16.612,47.624 L14.244,47.624 L14.244,50.872 L16.612,50.872 Z M23.604,57 C23.2306648,57 22.9426677,56.8986677 22.74,56.696 C22.5373323,56.4933323 22.436,56.2053352 22.436,55.832 L22.436,46.888 C22.436,46.5146648 22.5373323,46.2266677 22.74,46.024 C22.9426677,45.8213323 23.2306648,45.72 23.604,45.72 L29.268,45.72 C30.0573373,45.72 30.452,46.0399968 30.452,46.68 C30.452,47.3306699 30.0573373,47.656 29.268,47.656 L24.868,47.656 L24.868,50.296 L28.948,50.296 C29.7373373,50.296 30.132,50.6213301 30.132,51.272 C30.132,51.9120032 29.7373373,52.232 28.948,52.232 L24.868,52.232 L24.868,55.064 L29.268,55.064 C30.0573373,55.064 30.452,55.3893301 30.452,56.04 C30.452,56.6800032 30.0573373,57 29.268,57 L23.604,57 Z M40.532,45.64 C40.8840018,45.64 41.1693322,45.7546655 41.388,45.984 C41.6066678,46.2133345 41.716,46.5093315 41.716,46.872 L41.716,55.848 C41.716,56.2213352 41.6066678,56.5226655 41.388,56.752 C41.1693322,56.9813345 40.8840018,57.096 40.532,57.096 C40.1479981,57.096 39.8386678,56.9573347 39.604,56.68 L34.244,49.816 L34.244,55.848 C34.244,56.2213352 34.140001,56.5226655 33.932,56.752 C33.723999,56.9813345 33.4440018,57.096 33.092,57.096 C32.7399982,57.096 32.4573344,56.9813345 32.244,56.752 C32.0306656,56.5226655 31.924,56.2213352 31.924,55.848 L31.924,46.872 C31.924,46.5093315 32.0333322,46.2133345 32.252,45.984 C32.4706678,45.7546655 32.7559982,45.64 33.108,45.64 C33.5026686,45.64 33.8066656,45.7786653 34.02,46.056 L39.38,52.872 L39.38,46.872 C39.38,46.5093315 39.4866656,46.2133345 39.7,45.984 C39.9133344,45.7546655 40.190665,45.64 40.532,45.64 Z M47.812,57.08 C47.4386648,57.08 47.1373345,56.9680011 46.908,56.744 C46.6786655,56.5199989 46.564,56.2213352 46.564,55.848 L46.564,47.752 L43.972,47.752 C43.1826627,47.752 42.788,47.4106701 42.788,46.728 C42.788,46.0559966 43.1826627,45.72 43.972,45.72 L51.652,45.72 C52.4413373,45.72 52.836,46.0559966 52.836,46.728 C52.836,47.4106701 52.4413373,47.752 51.652,47.752 L49.06,47.752 L49.06,55.848 C49.06,56.2213352 48.9480011,56.5199989 48.724,56.744 C48.4999989,56.9680011 48.1960019,57.08 47.812,57.08 Z" id="SPENT" fill="#1A1A1A" fill-rule="nonzero"></path>
                <path d="M29.547,24.64 C29.547,26.7680106 28.7806743,28.6236588 27.248,30.207 C25.7153257,31.7903413 23.5303475,32.8353308 20.693,33.342 L20.693,37.56 L15.335,37.56 L15.335,33.532 C13.4349905,33.4306662 11.617342,33.1393357 9.882,32.658 C8.14665799,32.1766643 6.7090057,31.5813369 5.569,30.872 L8.457,24.336 C9.723673,25.0706703 11.1423255,25.6596645 12.713,26.103 C14.2836745,26.5463356 15.7909928,26.768 17.235,26.768 C18.4763395,26.768 19.3629973,26.6476679 19.895,26.407 C20.4270027,26.1663321 20.693,25.8053357 20.693,25.324 C20.693,24.7666639 20.3446701,24.3486681 19.648,24.07 C18.9513298,23.7913319 17.805008,23.487335 16.209,23.158 C14.1569897,22.7273312 12.4470068,22.2650025 11.079,21.771 C9.71099316,21.2769975 8.5203384,20.466339 7.507,19.339 C6.4936616,18.211661 5.987,16.685343 5.987,14.76 C5.987,12.5306555 6.79132529,10.618008 8.4,9.022 C10.0086747,7.42599202 12.3203183,6.41266882 15.335,5.982 L15.335,1.84 L20.693,1.84 L20.693,5.906 C23.7330152,6.18466806 26.3043228,6.91932738 28.407,8.11 L25.709,14.608 C23.0996536,13.2906601 20.6296783,12.632 18.299,12.632 C15.9936551,12.632 14.841,13.1893278 14.841,14.304 C14.841,14.8360027 15.1829966,15.2349987 15.867,15.501 C16.5510034,15.7670013 17.6783255,16.0519985 19.249,16.356 C21.2756768,16.7360019 22.9856597,17.1729975 24.379,17.667 C25.7723403,18.1610025 26.9819949,18.9653278 28.008,20.08 C29.0340051,21.1946722 29.547,22.714657 29.547,24.64 Z M43.759,6.4 L43.759,33 L34.791,33 L34.791,13.164 L30.231,13.164 L30.231,6.4 L43.759,6.4 Z" id="$1" fill="#1E1E1E" fill-rule="nonzero"></path>
            </g>
        </g>
    </g>
</svg>