<?xml version="1.0" encoding="UTF-8"?>
<svg width="398px" height="64px" viewBox="0 0 398 64" version="1.1" xmlns="http://www.w3.org/2000/svg" xmlns:xlink="http://www.w3.org/1999/xlink">
    <!-- Generator: Sketch 57.1 (83088) - https://sketch.com -->
    <title>PLCC lockup 1 point - Outlines</title>
    <desc>Created with Sketch.</desc>
    <g id="Desktop---Account-mpr-credit-card" stroke="none" stroke-width="1" fill="none" fill-rule="evenodd">
        <g id="Desktop---Lockup-Export" transform="translate(-56.000000, -299.000000)">
            <g id="PLCC-lockup-1-point---Outlines" transform="translate(56.000000, 295.000000)">
                <path d="M327.772,59.416 C327.932001,59.6506678 328.012,59.8799989 328.012,60.104 C328.012,60.4026682 327.892001,60.647999 327.652,60.84 C327.411999,61.032001 327.132002,61.128 326.812,61.128 C326.609332,61.128 326.412001,61.0800005 326.22,60.984 C326.027999,60.8879995 325.868001,60.7386677 325.74,60.536 L323.628,57.4 C323.446666,57.1226653 323.254668,56.9226673 323.052,56.8 C322.849332,56.6773327 322.593335,56.616 322.284,56.616 L320.988,56.616 L320.988,59.848 C320.988,60.2320019 320.878668,60.5359989 320.66,60.76 C320.441332,60.9840011 320.145335,61.096 319.772,61.096 C319.387998,61.096 319.084001,60.9840011 318.86,60.76 C318.635999,60.5359989 318.524,60.2320019 318.524,59.848 L318.524,50.888 C318.524,50.5146648 318.625332,50.2266677 318.828,50.024 C319.030668,49.8213323 319.318665,49.72 319.692,49.72 L323.708,49.72 C325.030673,49.72 326.030663,50.0106638 326.708,50.592 C327.385337,51.1733362 327.724,52.0133278 327.724,53.112 C327.724,53.9760043 327.484002,54.6959971 327.004,55.272 C326.524,55.8480029 325.846671,56.2266658 324.972,56.408 C325.292002,56.4720003 325.577332,56.5973324 325.828,56.784 C326.078668,56.9706676 326.321332,57.2399982 326.556,57.592 L327.772,59.416 Z M323.34,54.728 C324.05467,54.728 324.571998,54.6026679 324.892,54.352 C325.212002,54.1013321 325.372,53.709336 325.372,53.176 C325.372,52.6319973 325.212002,52.2373346 324.892,51.992 C324.571998,51.7466654 324.05467,51.624 323.34,51.624 L320.956,51.624 L320.956,54.728 L323.34,54.728 Z M330.908,61 C330.534665,61 330.246668,60.8986677 330.044,60.696 C329.841332,60.4933323 329.74,60.2053352 329.74,59.832 L329.74,50.888 C329.74,50.5146648 329.841332,50.2266677 330.044,50.024 C330.246668,49.8213323 330.534665,49.72 330.908,49.72 L336.572,49.72 C337.361337,49.72 337.756,50.0399968 337.756,50.68 C337.756,51.3306699 337.361337,51.656 336.572,51.656 L332.172,51.656 L332.172,54.296 L336.252,54.296 C337.041337,54.296 337.436,54.6213301 337.436,55.272 C337.436,55.9120032 337.041337,56.232 336.252,56.232 L332.172,56.232 L332.172,59.064 L336.572,59.064 C337.361337,59.064 337.756,59.3893301 337.756,60.04 C337.756,60.6800032 337.361337,61 336.572,61 L330.908,61 Z M353.276,50.392 C353.372,50.1359987 353.518666,49.941334 353.716,49.808 C353.913334,49.674666 354.134665,49.608 354.38,49.608 C354.689335,49.608 354.953332,49.703999 355.172,49.896 C355.390668,50.088001 355.5,50.3493317 355.5,50.68 C355.5,50.8400008 355.468,51.015999 355.404,51.208 L352.076,60.312 C351.98,60.5680013 351.812001,60.7679993 351.572,60.912 C351.331999,61.0560007 351.068001,61.128 350.78,61.128 C350.491999,61.128 350.230668,61.0560007 349.996,60.912 C349.761332,60.7679993 349.596,60.5680013 349.5,60.312 L347.116,53.576 L344.668,60.312 C344.572,60.5680013 344.406668,60.7679993 344.172,60.912 C343.937332,61.0560007 343.676001,61.128 343.388,61.128 C343.110665,61.128 342.852001,61.0560007 342.612,60.912 C342.371999,60.7679993 342.204,60.5680013 342.108,60.312 L338.78,51.208 C338.716,51.0266658 338.684,50.8560008 338.684,50.696 C338.684,50.3653317 338.801332,50.1013343 339.036,49.904 C339.270668,49.7066657 339.547998,49.608 339.868,49.608 C340.124001,49.608 340.355999,49.674666 340.564,49.808 C340.772001,49.941334 340.924,50.1359987 341.02,50.392 L343.484,57.48 L346.044,50.424 C346.14,50.1679987 346.291999,49.9706674 346.5,49.832 C346.708001,49.6933326 346.929332,49.624 347.164,49.624 C347.409335,49.624 347.633332,49.6933326 347.836,49.832 C348.038668,49.9706674 348.188,50.173332 348.284,50.44 L350.732,57.608 L353.276,50.392 Z M366.524,59.48 C366.609334,59.672001 366.652,59.8426659 366.652,59.992 C366.652,60.2906682 366.532001,60.543999 366.292,60.752 C366.051999,60.960001 365.777335,61.064 365.468,61.064 C365.265332,61.064 365.073334,61.0080006 364.892,60.896 C364.710666,60.7839994 364.572,60.6160011 364.476,60.392 L363.628,58.504 L358.204,58.504 L357.356,60.392 C357.26,60.6160011 357.124001,60.7839994 356.948,60.896 C356.771999,61.0080006 356.577334,61.064 356.364,61.064 C356.054665,61.064 355.777335,60.960001 355.532,60.752 C355.286665,60.543999 355.164,60.2906682 355.164,59.992 C355.164,59.8426659 355.206666,59.672001 355.292,59.48 L359.612,50.408 C359.729334,50.1519987 359.905332,49.957334 360.14,49.824 C360.374668,49.690666 360.625332,49.624 360.892,49.624 C361.169335,49.624 361.425332,49.6933326 361.66,49.832 C361.894668,49.9706674 362.075999,50.1626654 362.204,50.408 L366.524,59.48 Z M359.052,56.616 L362.78,56.616 L360.924,52.456 L359.052,56.616 Z M377.276,59.416 C377.436001,59.6506678 377.516,59.8799989 377.516,60.104 C377.516,60.4026682 377.396001,60.647999 377.156,60.84 C376.915999,61.032001 376.636002,61.128 376.316,61.128 C376.113332,61.128 375.916001,61.0800005 375.724,60.984 C375.531999,60.8879995 375.372001,60.7386677 375.244,60.536 L373.132,57.4 C372.950666,57.1226653 372.758668,56.9226673 372.556,56.8 C372.353332,56.6773327 372.097335,56.616 371.788,56.616 L370.492,56.616 L370.492,59.848 C370.492,60.2320019 370.382668,60.5359989 370.164,60.76 C369.945332,60.9840011 369.649335,61.096 369.276,61.096 C368.891998,61.096 368.588001,60.9840011 368.364,60.76 C368.139999,60.5359989 368.028,60.2320019 368.028,59.848 L368.028,50.888 C368.028,50.5146648 368.129332,50.2266677 368.332,50.024 C368.534668,49.8213323 368.822665,49.72 369.196,49.72 L373.212,49.72 C374.534673,49.72 375.534663,50.0106638 376.212,50.592 C376.889337,51.1733362 377.228,52.0133278 377.228,53.112 C377.228,53.9760043 376.988002,54.6959971 376.508,55.272 C376.028,55.8480029 375.350671,56.2266658 374.476,56.408 C374.796002,56.4720003 375.081332,56.5973324 375.332,56.784 C375.582668,56.9706676 375.825332,57.2399982 376.06,57.592 L377.276,59.416 Z M372.844,54.728 C373.55867,54.728 374.075998,54.6026679 374.396,54.352 C374.716002,54.1013321 374.876,53.709336 374.876,53.176 C374.876,52.6319973 374.716002,52.2373346 374.396,51.992 C374.075998,51.7466654 373.55867,51.624 372.844,51.624 L370.46,51.624 L370.46,54.728 L372.844,54.728 Z M380.412,61 C380.038665,61 379.750668,60.8986677 379.548,60.696 C379.345332,60.4933323 379.244,60.2053352 379.244,59.832 L379.244,50.888 C379.244,50.5146648 379.345332,50.2266677 379.548,50.024 C379.750668,49.8213323 380.038665,49.72 380.412,49.72 L383.628,49.72 C384.854673,49.72 385.910662,49.9439978 386.796,50.392 C387.681338,50.8400022 388.358664,51.4853291 388.828,52.328 C389.297336,53.1706709 389.532,54.1786608 389.532,55.352 C389.532,56.5253392 389.300002,57.5359958 388.836,58.384 C388.371998,59.2320042 387.697338,59.8799978 386.812,60.328 C385.926662,60.7760022 384.86534,61 383.628,61 L380.412,61 Z M383.452,58.984 C385.852012,58.984 387.052,57.7733454 387.052,55.352 C387.052,52.9413213 385.852012,51.736 383.452,51.736 L381.74,51.736 L381.74,58.984 L383.452,58.984 Z M396.524,51.832 C396.758668,51.8213333 396.942666,51.8959992 397.076,52.056 C397.209334,52.2160008 397.276,52.4026656 397.276,52.616 C397.276,52.8400011 397.209334,53.0319992 397.076,53.192 C396.942666,53.3520008 396.758668,53.4266667 396.524,53.416 L395.196,53.336 L395.932,54.44 C396.017334,54.5786674 396.06,54.7066661 396.06,54.824 C396.06,55.0373344 395.964001,55.2239992 395.772,55.384 C395.579999,55.5440008 395.372001,55.624 395.148,55.624 C394.870665,55.624 394.673334,55.4960013 394.556,55.24 L393.964,54.04 L393.372,55.24 C393.254666,55.4960013 393.052001,55.624 392.764,55.624 C392.539999,55.624 392.334668,55.5440008 392.148,55.384 C391.961332,55.2239992 391.868,55.0373344 391.868,54.824 C391.868,54.7066661 391.910666,54.5786674 391.996,54.44 L392.732,53.336 L391.404,53.416 C391.169332,53.4266667 390.985334,53.3520008 390.852,53.192 C390.718666,53.0319992 390.652,52.8453344 390.652,52.632 C390.652,52.4079989 390.718666,52.2160008 390.852,52.056 C390.985334,51.8959992 391.169332,51.8213333 391.404,51.832 L392.732,51.912 L391.996,50.808 C391.910666,50.6906661 391.868,50.5626674 391.868,50.424 C391.868,50.2106656 391.961332,50.0293341 392.148,49.88 C392.334668,49.7306659 392.539999,49.656 392.764,49.656 C393.041335,49.656 393.243999,49.7786654 393.372,50.024 L393.964,51.224 L394.556,50.024 C394.694667,49.7679987 394.902665,49.64 395.18,49.64 C395.393334,49.64 395.593332,49.7173326 395.78,49.872 C395.966668,50.0266674 396.06,50.2106656 396.06,50.424 C396.06,50.5413339 396.017334,50.6693326 395.932,50.808 L395.196,51.912 L396.524,51.832 Z" id="REWARD*" fill="#000000" fill-rule="nonzero"></path>
                <path d="M219.396,61.144 C218.553329,61.144 217.769337,61.0453343 217.044,60.848 C216.318663,60.6506657 215.726669,60.3706685 215.268,60.008 C215.107999,59.8906661 214.993334,59.765334 214.924,59.632 C214.854666,59.498666 214.82,59.3306677 214.82,59.128 C214.82,58.861332 214.902666,58.6266677 215.068,58.424 C215.233334,58.2213323 215.422666,58.12 215.636,58.12 C215.753334,58.12 215.867999,58.1386665 215.98,58.176 C216.092001,58.2133335 216.227999,58.2799995 216.388,58.376 C216.846669,58.6640014 217.310664,58.874666 217.78,59.008 C218.249336,59.141334 218.766664,59.208 219.332,59.208 C220.036004,59.208 220.574665,59.0906678 220.948,58.856 C221.321335,58.6213322 221.508,58.2853355 221.508,57.848 C221.508,57.5173317 221.334668,57.2506677 220.988,57.048 C220.641332,56.8453323 220.025338,56.6533342 219.14,56.472 C218.147995,56.2693323 217.356003,56.0240014 216.764,55.736 C216.171997,55.4479986 215.740001,55.0906688 215.468,54.664 C215.195999,54.2373312 215.06,53.720003 215.06,53.112 C215.06,52.4399966 215.254665,51.8346694 215.644,51.296 C216.033335,50.7573306 216.571997,50.3360015 217.26,50.032 C217.948003,49.7279985 218.723996,49.576 219.588,49.576 C221.102674,49.576 222.350662,49.9546629 223.332,50.712 C223.492001,50.8400006 223.606666,50.970666 223.676,51.104 C223.745334,51.237334 223.78,51.399999 223.78,51.592 C223.78,51.858668 223.697334,52.0933323 223.532,52.296 C223.366666,52.4986677 223.177334,52.6 222.964,52.6 C222.846666,52.6 222.737334,52.5840002 222.636,52.552 C222.534666,52.5199998 222.393334,52.4506672 222.212,52.344 C221.774664,52.0666653 221.372002,51.8586674 221.004,51.72 C220.635998,51.5813326 220.169336,51.512 219.604,51.512 C218.95333,51.512 218.441335,51.6373321 218.068,51.888 C217.694665,52.1386679 217.508,52.4826645 217.508,52.92 C217.508,53.1760013 217.579999,53.3866658 217.724,53.552 C217.868001,53.7173342 218.107998,53.8639994 218.444,53.992 C218.780002,54.1200006 219.25733,54.2533326 219.876,54.392 C221.326674,54.7120016 222.36933,55.1226642 223.004,55.624 C223.63867,56.1253358 223.956,56.813329 223.956,57.688 C223.956,58.3706701 223.766669,58.9733307 223.388,59.496 C223.009331,60.0186693 222.476003,60.4239986 221.788,60.712 C221.099997,61.0000014 220.302671,61.144 219.396,61.144 Z M226.996,61.096 C226.611998,61.096 226.308001,60.9840011 226.084,60.76 C225.859999,60.5359989 225.748,60.2320019 225.748,59.848 L225.748,50.888 C225.748,50.5146648 225.849332,50.2266677 226.052,50.024 C226.254668,49.8213323 226.542665,49.72 226.916,49.72 L230.932,49.72 C232.158673,49.72 233.11333,50.0293302 233.796,50.648 C234.47867,51.2666698 234.82,52.1306611 234.82,53.24 C234.82,54.3493389 234.47867,55.2133302 233.796,55.832 C233.11333,56.4506698 232.158673,56.76 230.932,56.76 L228.244,56.76 L228.244,59.848 C228.244,60.2320019 228.132001,60.5359989 227.908,60.76 C227.683999,60.9840011 227.380002,61.096 226.996,61.096 Z M230.612,54.872 C231.860006,54.872 232.484,54.3333387 232.484,53.256 C232.484,52.1679946 231.860006,51.624 230.612,51.624 L228.244,51.624 L228.244,54.872 L230.612,54.872 Z M237.604,61 C237.230665,61 236.942668,60.8986677 236.74,60.696 C236.537332,60.4933323 236.436,60.2053352 236.436,59.832 L236.436,50.888 C236.436,50.5146648 236.537332,50.2266677 236.74,50.024 C236.942668,49.8213323 237.230665,49.72 237.604,49.72 L243.268,49.72 C244.057337,49.72 244.452,50.0399968 244.452,50.68 C244.452,51.3306699 244.057337,51.656 243.268,51.656 L238.868,51.656 L238.868,54.296 L242.948,54.296 C243.737337,54.296 244.132,54.6213301 244.132,55.272 C244.132,55.9120032 243.737337,56.232 242.948,56.232 L238.868,56.232 L238.868,59.064 L243.268,59.064 C244.057337,59.064 244.452,59.3893301 244.452,60.04 C244.452,60.6800032 244.057337,61 243.268,61 L237.604,61 Z M254.532,49.64 C254.884002,49.64 255.169332,49.7546655 255.388,49.984 C255.606668,50.2133345 255.716,50.5093315 255.716,50.872 L255.716,59.848 C255.716,60.2213352 255.606668,60.5226655 255.388,60.752 C255.169332,60.9813345 254.884002,61.096 254.532,61.096 C254.147998,61.096 253.838668,60.9573347 253.604,60.68 L248.244,53.816 L248.244,59.848 C248.244,60.2213352 248.140001,60.5226655 247.932,60.752 C247.723999,60.9813345 247.444002,61.096 247.092,61.096 C246.739998,61.096 246.457334,60.9813345 246.244,60.752 C246.030666,60.5226655 245.924,60.2213352 245.924,59.848 L245.924,50.872 C245.924,50.5093315 246.033332,50.2133345 246.252,49.984 C246.470668,49.7546655 246.755998,49.64 247.108,49.64 C247.502669,49.64 247.806666,49.7786653 248.02,50.056 L253.38,56.872 L253.38,50.872 C253.38,50.5093315 253.486666,50.2133345 253.7,49.984 C253.913334,49.7546655 254.190665,49.64 254.532,49.64 Z M261.812,61.08 C261.438665,61.08 261.137334,60.9680011 260.908,60.744 C260.678666,60.5199989 260.564,60.2213352 260.564,59.848 L260.564,51.752 L257.972,51.752 C257.182663,51.752 256.788,51.4106701 256.788,50.728 C256.788,50.0559966 257.182663,49.72 257.972,49.72 L265.652,49.72 C266.441337,49.72 266.836,50.0559966 266.836,50.728 C266.836,51.4106701 266.441337,51.752 265.652,51.752 L263.06,51.752 L263.06,59.848 C263.06,60.2213352 262.948001,60.5199989 262.724,60.744 C262.499999,60.9680011 262.196002,61.08 261.812,61.08 Z" id="SPENT" fill="#1A1A1A" fill-rule="nonzero"></path>
                <path d="M357.728,28.64 C357.728,30.7680106 356.961674,32.6236588 355.429,34.207 C353.896326,35.7903412 351.711348,36.8353308 348.874,37.342 L348.874,41.56 L343.516,41.56 L343.516,37.532 C341.615991,37.4306662 339.798342,37.1393357 338.063,36.658 C336.327658,36.1766643 334.890006,35.5813369 333.75,34.872 L336.638,28.336 C337.904673,29.0706703 339.323325,29.6596645 340.894,30.103 C342.464675,30.5463356 343.971993,30.768 345.416,30.768 C346.65734,30.768 347.543997,30.6476679 348.076,30.407 C348.608003,30.1663321 348.874,29.8053357 348.874,29.324 C348.874,28.7666639 348.52567,28.3486681 347.829,28.07 C347.13233,27.7913319 345.986008,27.487335 344.39,27.158 C342.33799,26.7273312 340.628007,26.2650025 339.26,25.771 C337.891993,25.2769975 336.701338,24.466339 335.688,23.339 C334.674662,22.211661 334.168,20.685343 334.168,18.76 C334.168,16.5306555 334.972325,14.618008 336.581,13.022 C338.189675,11.425992 340.501318,10.4126688 343.516,9.982 L343.516,5.84 L348.874,5.84 L348.874,9.906 C351.914015,10.1846681 354.485323,10.9193274 356.588,12.11 L353.89,18.608 C351.280654,17.2906601 348.810678,16.632 346.48,16.632 C344.174655,16.632 343.022,17.1893278 343.022,18.304 C343.022,18.8360027 343.363997,19.2349987 344.048,19.501 C344.732003,19.7670013 345.859325,20.0519985 347.43,20.356 C349.456677,20.7360019 351.16666,21.1729975 352.56,21.667 C353.95334,22.1610025 355.162995,22.9653278 356.189,24.08 C357.215005,25.1946722 357.728,26.714657 357.728,28.64 Z M370.192,19.786 C373.916019,19.786 376.658325,20.5649922 378.419,22.123 C380.179675,23.6810078 381.06,25.726654 381.06,28.26 C381.06,29.9320084 380.623004,31.470993 379.749,32.877 C378.874996,34.283007 377.526009,35.4229956 375.702,36.297 C373.877991,37.1710044 371.61068,37.608 368.9,37.608 C367.025324,37.608 365.157009,37.4053354 363.295,37 C361.432991,36.5946646 359.80534,35.9993373 358.412,35.214 L361.452,28.602 C362.566672,29.2353365 363.738327,29.716665 364.967,30.046 C366.195673,30.375335 367.392661,30.54 368.558,30.54 C369.596672,30.54 370.438997,30.3563352 371.085,29.989 C371.731003,29.6216648 372.054,29.10867 372.054,28.45 C372.054,27.8166635 371.76267,27.3416682 371.18,27.025 C370.59733,26.7083317 369.546008,26.55 368.026,26.55 L360.312,26.55 L361.642,10.4 L379.312,10.4 L379.312,17.164 L369.014,17.164 L368.824,19.786 L370.192,19.786 Z" id="$5" fill="#000000" fill-rule="nonzero"></path>
                <path d="M290.31,16.53 L309.69,16.53 L309.69,22.99 L290.31,22.99 L290.31,16.53 Z M290.31,26.41 L309.69,26.41 L309.69,32.87 L290.31,32.87 L290.31,26.41 Z" id="=" fill="#000000" fill-rule="nonzero"></path>
                <path d="M219.98,10.4 L219.98,37 L211.012,37 L211.012,17.164 L206.452,17.164 L206.452,10.4 L219.98,10.4 Z M235.294,37.608 C232.937988,37.608 230.854342,37.0570055 229.043,35.955 C227.231658,34.8529945 225.813005,33.2570104 224.787,31.167 C223.760995,29.0769896 223.248,26.5880144 223.248,23.7 C223.248,20.8119856 223.760995,18.3230105 224.787,16.233 C225.813005,14.1429896 227.231658,12.5470055 229.043,11.445 C230.854342,10.3429945 232.937988,9.792 235.294,9.792 C237.650012,9.792 239.733658,10.3429945 241.545,11.445 C243.356342,12.5470055 244.774995,14.1429896 245.801,16.233 C246.827005,18.3230105 247.34,20.8119856 247.34,23.7 C247.34,26.5880144 246.827005,29.0769896 245.801,31.167 C244.774995,33.2570104 243.356342,34.8529945 241.545,35.955 C239.733658,37.0570055 237.650012,37.608 235.294,37.608 Z M235.294,30.426 C237.320677,30.426 238.334,28.1840224 238.334,23.7 C238.334,19.2159776 237.320677,16.974 235.294,16.974 C233.267323,16.974 232.254,19.2159776 232.254,23.7 C232.254,28.1840224 233.267323,30.426 235.294,30.426 Z M261.59,37.608 C259.233988,37.608 257.150342,37.0570055 255.339,35.955 C253.527658,34.8529945 252.109005,33.2570104 251.083,31.167 C250.056995,29.0769896 249.544,26.5880144 249.544,23.7 C249.544,20.8119856 250.056995,18.3230105 251.083,16.233 C252.109005,14.1429896 253.527658,12.5470055 255.339,11.445 C257.150342,10.3429945 259.233988,9.792 261.59,9.792 C263.946012,9.792 266.029658,10.3429945 267.841,11.445 C269.652342,12.5470055 271.070995,14.1429896 272.097,16.233 C273.123005,18.3230105 273.636,20.8119856 273.636,23.7 C273.636,26.5880144 273.123005,29.0769896 272.097,31.167 C271.070995,33.2570104 269.652342,34.8529945 267.841,35.955 C266.029658,37.0570055 263.946012,37.608 261.59,37.608 Z M261.59,30.426 C263.616677,30.426 264.63,28.1840224 264.63,23.7 C264.63,19.2159776 263.616677,16.974 261.59,16.974 C259.563323,16.974 258.55,19.2159776 258.55,23.7 C258.55,28.1840224 259.563323,30.426 261.59,30.426 Z" id="100" fill="#000000" fill-rule="nonzero"></path>
                <g id="elements/header-divider" transform="translate(181.000000, 36.000000) rotate(90.000000) translate(-181.000000, -36.000000) translate(149.000000, 35.000000)" fill="#666666">
                    <rect id="Rectangle" x="0" y="0" width="64" height="2"></rect>
                </g>
                <path d="M97.82,61.096 C97.4359981,61.096 97.1320011,60.9840011 96.908,60.76 C96.6839989,60.5359989 96.572,60.2320019 96.572,59.848 L96.572,50.888 C96.572,50.5146648 96.6733323,50.2266677 96.876,50.024 C97.0786677,49.8213323 97.3666648,49.72 97.74,49.72 L101.756,49.72 C102.982673,49.72 103.93733,50.0293302 104.62,50.648 C105.30267,51.2666698 105.644,52.1306611 105.644,53.24 C105.644,54.3493389 105.30267,55.2133302 104.62,55.832 C103.93733,56.4506698 102.982673,56.76 101.756,56.76 L99.068,56.76 L99.068,59.848 C99.068,60.2320019 98.9560011,60.5359989 98.732,60.76 C98.5079989,60.9840011 98.2040019,61.096 97.82,61.096 Z M101.436,54.872 C102.684006,54.872 103.308,54.3333387 103.308,53.256 C103.308,52.1679946 102.684006,51.624 101.436,51.624 L99.068,51.624 L99.068,54.872 L101.436,54.872 Z M112.444,61.144 C111.323994,61.144 110.350671,60.906669 109.524,60.432 C108.697329,59.957331 108.060002,59.2853377 107.612,58.416 C107.163998,57.5466623 106.94,56.5253392 106.94,55.352 C106.94,54.1786608 107.163998,53.1573377 107.612,52.288 C108.060002,51.4186623 108.697329,50.7493357 109.524,50.28 C110.350671,49.8106643 111.323994,49.576 112.444,49.576 C113.564006,49.576 114.537329,49.8106643 115.364,50.28 C116.190671,50.7493357 116.827998,51.4186623 117.276,52.288 C117.724002,53.1573377 117.948,54.1786608 117.948,55.352 C117.948,56.5253392 117.724002,57.5466623 117.276,58.416 C116.827998,59.2853377 116.190671,59.957331 115.364,60.432 C114.537329,60.906669 113.564006,61.144 112.444,61.144 Z M112.444,59.208 C113.382671,59.208 114.121331,58.8773366 114.66,58.216 C115.198669,57.5546634 115.468,56.6000062 115.468,55.352 C115.468,54.1039938 115.201336,53.1520033 114.668,52.496 C114.134664,51.8399967 113.393338,51.512 112.444,51.512 C111.494662,51.512 110.756003,51.8399967 110.228,52.496 C109.699997,53.1520033 109.436,54.1039938 109.436,55.352 C109.436,56.6000062 109.702664,57.5546634 110.236,58.216 C110.769336,58.8773366 111.505329,59.208 112.444,59.208 Z M121.1,61.096 C120.715998,61.096 120.412001,60.9840011 120.188,60.76 C119.963999,60.5359989 119.852,60.2320019 119.852,59.848 L119.852,50.872 C119.852,50.4986648 119.963999,50.2000011 120.188,49.976 C120.412001,49.7519989 120.715998,49.64 121.1,49.64 C121.484002,49.64 121.787999,49.7519989 122.012,49.976 C122.236001,50.2000011 122.348,50.4986648 122.348,50.872 L122.348,59.848 C122.348,60.2320019 122.236001,60.5359989 122.012,60.76 C121.787999,60.9840011 121.484002,61.096 121.1,61.096 Z M133.196,49.64 C133.548002,49.64 133.833332,49.7546655 134.052,49.984 C134.270668,50.2133345 134.38,50.5093315 134.38,50.872 L134.38,59.848 C134.38,60.2213352 134.270668,60.5226655 134.052,60.752 C133.833332,60.9813345 133.548002,61.096 133.196,61.096 C132.811998,61.096 132.502668,60.9573347 132.268,60.68 L126.908,53.816 L126.908,59.848 C126.908,60.2213352 126.804001,60.5226655 126.596,60.752 C126.387999,60.9813345 126.108002,61.096 125.756,61.096 C125.403998,61.096 125.121334,60.9813345 124.908,60.752 C124.694666,60.5226655 124.588,60.2213352 124.588,59.848 L124.588,50.872 C124.588,50.5093315 124.697332,50.2133345 124.916,49.984 C125.134668,49.7546655 125.419998,49.64 125.772,49.64 C126.166669,49.64 126.470666,49.7786653 126.684,50.056 L132.044,56.872 L132.044,50.872 C132.044,50.5093315 132.150666,50.2133345 132.364,49.984 C132.577334,49.7546655 132.854665,49.64 133.196,49.64 Z M140.476,61.08 C140.102665,61.08 139.801334,60.9680011 139.572,60.744 C139.342666,60.5199989 139.228,60.2213352 139.228,59.848 L139.228,51.752 L136.636,51.752 C135.846663,51.752 135.452,51.4106701 135.452,50.728 C135.452,50.0559966 135.846663,49.72 136.636,49.72 L144.316,49.72 C145.105337,49.72 145.5,50.0559966 145.5,50.728 C145.5,51.4106701 145.105337,51.752 144.316,51.752 L141.724,51.752 L141.724,59.848 C141.724,60.2213352 141.612001,60.5199989 141.388,60.744 C141.163999,60.9680011 140.860002,61.08 140.476,61.08 Z M150.316,61.144 C149.473329,61.144 148.689337,61.0453343 147.964,60.848 C147.238663,60.6506657 146.646669,60.3706685 146.188,60.008 C146.027999,59.8906661 145.913334,59.765334 145.844,59.632 C145.774666,59.498666 145.74,59.3306677 145.74,59.128 C145.74,58.861332 145.822666,58.6266677 145.988,58.424 C146.153334,58.2213323 146.342666,58.12 146.556,58.12 C146.673334,58.12 146.787999,58.1386665 146.9,58.176 C147.012001,58.2133335 147.147999,58.2799995 147.308,58.376 C147.766669,58.6640014 148.230664,58.874666 148.7,59.008 C149.169336,59.141334 149.686664,59.208 150.252,59.208 C150.956004,59.208 151.494665,59.0906678 151.868,58.856 C152.241335,58.6213322 152.428,58.2853355 152.428,57.848 C152.428,57.5173317 152.254668,57.2506677 151.908,57.048 C151.561332,56.8453323 150.945338,56.6533342 150.06,56.472 C149.067995,56.2693323 148.276003,56.0240014 147.684,55.736 C147.091997,55.4479986 146.660001,55.0906688 146.388,54.664 C146.115999,54.2373312 145.98,53.720003 145.98,53.112 C145.98,52.4399966 146.174665,51.8346694 146.564,51.296 C146.953335,50.7573306 147.491997,50.3360015 148.18,50.032 C148.868003,49.7279985 149.643996,49.576 150.508,49.576 C152.022674,49.576 153.270662,49.9546629 154.252,50.712 C154.412001,50.8400006 154.526666,50.970666 154.596,51.104 C154.665334,51.237334 154.7,51.399999 154.7,51.592 C154.7,51.858668 154.617334,52.0933323 154.452,52.296 C154.286666,52.4986677 154.097334,52.6 153.884,52.6 C153.766666,52.6 153.657334,52.5840002 153.556,52.552 C153.454666,52.5199998 153.313334,52.4506672 153.132,52.344 C152.694664,52.0666653 152.292002,51.8586674 151.924,51.72 C151.555998,51.5813326 151.089336,51.512 150.524,51.512 C149.87333,51.512 149.361335,51.6373321 148.988,51.888 C148.614665,52.1386679 148.428,52.4826645 148.428,52.92 C148.428,53.1760013 148.499999,53.3866658 148.644,53.552 C148.788001,53.7173342 149.027998,53.8639994 149.364,53.992 C149.700002,54.1200006 150.17733,54.2533326 150.796,54.392 C152.246674,54.7120016 153.28933,55.1226642 153.924,55.624 C154.55867,56.1253358 154.876,56.813329 154.876,57.688 C154.876,58.3706701 154.686669,58.9733307 154.308,59.496 C153.929331,60.0186693 153.396003,60.4239986 152.708,60.712 C152.019997,61.0000014 151.222671,61.144 150.316,61.144 Z" id="POINTS" fill="#666666" fill-rule="nonzero"></path>
                <path d="M136.83,30.046 L136.83,37 L115.512,37 L115.512,31.49 L125.126,22.598 C125.962004,21.8126627 126.519332,21.1413361 126.798,20.584 C127.076668,20.0266639 127.216,19.4820027 127.216,18.95 C127.216,18.29133 126.994336,17.7783352 126.551,17.411 C126.107664,17.0436648 125.468004,16.86 124.632,16.86 C123.821329,16.86 123.061337,17.0753312 122.352,17.506 C121.642663,17.9366688 121.098002,18.5446627 120.718,19.33 L113.954,15.948 C114.967338,14.0479905 116.449324,12.5470055 118.4,11.445 C120.350676,10.3429945 122.706653,9.792 125.468,9.792 C127.570677,9.792 129.432659,10.1339966 131.054,10.818 C132.675341,11.5020034 133.941995,12.477327 134.854,13.744 C135.766005,15.010673 136.222,16.4673251 136.222,18.114 C136.222,19.5833407 135.91167,20.9576603 135.291,22.237 C134.67033,23.5163397 133.460676,24.9666586 131.662,26.588 L127.862,30.046 L136.83,30.046 Z" id="2" fill="#7D7D7D" fill-rule="nonzero"></path>
                <path d="M68.31,16.53 L87.69,16.53 L87.69,22.99 L68.31,22.99 L68.31,16.53 Z M68.31,26.41 L87.69,26.41 L87.69,32.87 L68.31,32.87 L68.31,26.41 Z" id="=" fill="#1E1E1E" fill-rule="nonzero"></path>
                <path d="M5.396,61.144 C4.55332912,61.144 3.76933696,61.0453343 3.044,60.848 C2.31866304,60.6506657 1.72666896,60.3706685 1.268,60.008 C1.1079992,59.8906661 0.99333368,59.765334 0.924,59.632 C0.85466632,59.498666 0.82,59.3306677 0.82,59.128 C0.82,58.861332 0.90266584,58.6266677 1.068,58.424 C1.23333416,58.2213323 1.4226656,58.12 1.636,58.12 C1.75333392,58.12 1.86799944,58.1386665 1.98,58.176 C2.09200056,58.2133335 2.2279992,58.2799995 2.388,58.376 C2.84666896,58.6640014 3.31066432,58.874666 3.78,59.008 C4.24933568,59.141334 4.76666384,59.208 5.332,59.208 C6.03600352,59.208 6.5746648,59.0906678 6.948,58.856 C7.3213352,58.6213322 7.508,58.2853355 7.508,57.848 C7.508,57.5173317 7.3346684,57.2506677 6.988,57.048 C6.6413316,56.8453323 6.02533776,56.6533342 5.14,56.472 C4.14799504,56.2693323 3.35600296,56.0240014 2.764,55.736 C2.17199704,55.4479986 1.74000136,55.0906688 1.468,54.664 C1.19599864,54.2373312 1.06,53.720003 1.06,53.112 C1.06,52.4399966 1.25466472,51.8346694 1.644,51.296 C2.03333528,50.7573306 2.57199656,50.3360015 3.26,50.032 C3.94800344,49.7279985 4.72399568,49.576 5.588,49.576 C7.10267424,49.576 8.35066176,49.9546629 9.332,50.712 C9.4920008,50.8400006 9.60666632,50.970666 9.676,51.104 C9.74533368,51.237334 9.78,51.399999 9.78,51.592 C9.78,51.858668 9.69733416,52.0933323 9.532,52.296 C9.36666584,52.4986677 9.1773344,52.6 8.964,52.6 C8.84666608,52.6 8.73733384,52.5840002 8.636,52.552 C8.53466616,52.5199998 8.39333424,52.4506672 8.212,52.344 C7.77466448,52.0666653 7.37200184,51.8586674 7.004,51.72 C6.63599816,51.5813326 6.16933616,51.512 5.604,51.512 C4.95333008,51.512 4.4413352,51.6373321 4.068,51.888 C3.6946648,52.1386679 3.508,52.4826645 3.508,52.92 C3.508,53.1760013 3.57999928,53.3866658 3.724,53.552 C3.86800072,53.7173342 4.10799832,53.8639994 4.444,53.992 C4.78000168,54.1200006 5.25733024,54.2533326 5.876,54.392 C7.32667392,54.7120016 8.36933016,55.1226642 9.004,55.624 C9.63866984,56.1253358 9.956,56.813329 9.956,57.688 C9.956,58.3706701 9.76666856,58.9733307 9.388,59.496 C9.00933144,60.0186693 8.47600344,60.4239986 7.788,60.712 C7.09999656,61.0000014 6.3026712,61.144 5.396,61.144 Z M12.996,61.096 C12.6119981,61.096 12.3080011,60.9840011 12.084,60.76 C11.8599989,60.5359989 11.748,60.2320019 11.748,59.848 L11.748,50.888 C11.748,50.5146648 11.8493323,50.2266677 12.052,50.024 C12.2546677,49.8213323 12.5426648,49.72 12.916,49.72 L16.932,49.72 C18.1586728,49.72 19.1133299,50.0293302 19.796,50.648 C20.4786701,51.2666698 20.82,52.1306611 20.82,53.24 C20.82,54.3493389 20.4786701,55.2133302 19.796,55.832 C19.1133299,56.4506698 18.1586728,56.76 16.932,56.76 L14.244,56.76 L14.244,59.848 C14.244,60.2320019 14.1320011,60.5359989 13.908,60.76 C13.6839989,60.9840011 13.3800019,61.096 12.996,61.096 Z M16.612,54.872 C17.8600062,54.872 18.484,54.3333387 18.484,53.256 C18.484,52.1679946 17.8600062,51.624 16.612,51.624 L14.244,51.624 L14.244,54.872 L16.612,54.872 Z M23.604,61 C23.2306648,61 22.9426677,60.8986677 22.74,60.696 C22.5373323,60.4933323 22.436,60.2053352 22.436,59.832 L22.436,50.888 C22.436,50.5146648 22.5373323,50.2266677 22.74,50.024 C22.9426677,49.8213323 23.2306648,49.72 23.604,49.72 L29.268,49.72 C30.0573373,49.72 30.452,50.0399968 30.452,50.68 C30.452,51.3306699 30.0573373,51.656 29.268,51.656 L24.868,51.656 L24.868,54.296 L28.948,54.296 C29.7373373,54.296 30.132,54.6213301 30.132,55.272 C30.132,55.9120032 29.7373373,56.232 28.948,56.232 L24.868,56.232 L24.868,59.064 L29.268,59.064 C30.0573373,59.064 30.452,59.3893301 30.452,60.04 C30.452,60.6800032 30.0573373,61 29.268,61 L23.604,61 Z M40.532,49.64 C40.8840018,49.64 41.1693322,49.7546655 41.388,49.984 C41.6066678,50.2133345 41.716,50.5093315 41.716,50.872 L41.716,59.848 C41.716,60.2213352 41.6066678,60.5226655 41.388,60.752 C41.1693322,60.9813345 40.8840018,61.096 40.532,61.096 C40.1479981,61.096 39.8386678,60.9573347 39.604,60.68 L34.244,53.816 L34.244,59.848 C34.244,60.2213352 34.140001,60.5226655 33.932,60.752 C33.723999,60.9813345 33.4440018,61.096 33.092,61.096 C32.7399982,61.096 32.4573344,60.9813345 32.244,60.752 C32.0306656,60.5226655 31.924,60.2213352 31.924,59.848 L31.924,50.872 C31.924,50.5093315 32.0333322,50.2133345 32.252,49.984 C32.4706678,49.7546655 32.7559982,49.64 33.108,49.64 C33.5026686,49.64 33.8066656,49.7786653 34.02,50.056 L39.38,56.872 L39.38,50.872 C39.38,50.5093315 39.4866656,50.2133345 39.7,49.984 C39.9133344,49.7546655 40.190665,49.64 40.532,49.64 Z M47.812,61.08 C47.4386648,61.08 47.1373345,60.9680011 46.908,60.744 C46.6786655,60.5199989 46.564,60.2213352 46.564,59.848 L46.564,51.752 L43.972,51.752 C43.1826627,51.752 42.788,51.4106701 42.788,50.728 C42.788,50.0559966 43.1826627,49.72 43.972,49.72 L51.652,49.72 C52.4413373,49.72 52.836,50.0559966 52.836,50.728 C52.836,51.4106701 52.4413373,51.752 51.652,51.752 L49.06,51.752 L49.06,59.848 C49.06,60.2213352 48.9480011,60.5199989 48.724,60.744 C48.4999989,60.9680011 48.1960019,61.08 47.812,61.08 Z" id="SPENT" fill="#1A1A1A" fill-rule="nonzero"></path>
                <path d="M29.547,28.64 C29.547,30.7680106 28.7806743,32.6236588 27.248,34.207 C25.7153257,35.7903412 23.5303475,36.8353308 20.693,37.342 L20.693,41.56 L15.335,41.56 L15.335,37.532 C13.4349905,37.4306662 11.617342,37.1393357 9.882,36.658 C8.14665799,36.1766643 6.7090057,35.5813369 5.569,34.872 L8.457,28.336 C9.723673,29.0706703 11.1423255,29.6596645 12.713,30.103 C14.2836745,30.5463356 15.7909928,30.768 17.235,30.768 C18.4763395,30.768 19.3629973,30.6476679 19.895,30.407 C20.4270027,30.1663321 20.693,29.8053357 20.693,29.324 C20.693,28.7666639 20.3446701,28.3486681 19.648,28.07 C18.9513299,27.7913319 17.805008,27.487335 16.209,27.158 C14.1569897,26.7273312 12.4470068,26.2650025 11.079,25.771 C9.71099316,25.2769975 8.5203384,24.466339 7.507,23.339 C6.4936616,22.211661 5.987,20.685343 5.987,18.76 C5.987,16.5306555 6.79132529,14.618008 8.4,13.022 C10.0086747,11.425992 12.3203183,10.4126688 15.335,9.982 L15.335,5.84 L20.693,5.84 L20.693,9.906 C23.7330152,10.1846681 26.3043228,10.9193274 28.407,12.11 L25.709,18.608 C23.0996536,17.2906601 20.6296783,16.632 18.299,16.632 C15.9936551,16.632 14.841,17.1893278 14.841,18.304 C14.841,18.8360027 15.1829966,19.2349987 15.867,19.501 C16.5510034,19.7670013 17.6783255,20.0519985 19.249,20.356 C21.2756768,20.7360019 22.9856597,21.1729975 24.379,21.667 C25.7723403,22.1610025 26.9819949,22.9653278 28.008,24.08 C29.0340051,25.1946722 29.547,26.714657 29.547,28.64 Z M43.759,10.4 L43.759,37 L34.791,37 L34.791,17.164 L30.231,17.164 L30.231,10.4 L43.759,10.4 Z" id="$1" fill="#1E1E1E" fill-rule="nonzero"></path>
            </g>
        </g>
    </g>
</svg>