<?xml version="1.0" encoding="UTF-8"?>
<svg width="24px" height="30px" viewBox="0 0 24 30" version="1.1" xmlns="http://www.w3.org/2000/svg" xmlns:xlink="http://www.w3.org/1999/xlink">
    <!-- Generator: Sketch 50.2 (55047) - http://www.bohemiancoding.com/sketch -->
    <title>Page 1</title>
    <desc>Created with Sketch.</desc>
    <defs></defs>
    <g id="Page-1" stroke="none" stroke-width="1" fill="none" fill-rule="evenodd">
        <g id="My-Account_Account_Overview_-MPR-Desktop" transform="translate(-1249.000000, -1006.000000)">
            <g id="Group-18" transform="translate(1055.000000, 770.000000)">
                <g id="Group-4" transform="translate(32.000000, 193.000000)">
                    <g id="Page-1" transform="translate(163.000000, 43.000000)">
                        <path d="M10.5125,5.8 C9.1134231,5.8 7.975,4.66212342 7.975,3.26214772 C7.975,1.86287658 9.1134231,0.725 10.5125,0.725 C11.9115769,0.725 13.05,1.86287658 13.05,3.26214772 C13.05,4.66212342 11.9115769,5.8 10.5125,5.8" id="Fill-1" fill="#FEFEFE"></path>
                        <path d="M10.5125,0 C8.71394231,0 7.25,1.46268336 7.25,3.2628545 C7.25,5.06160763 8.71394231,6.525 10.5125,6.525 C12.3110577,6.525 13.775,5.06160763 13.775,3.2628545 C13.775,1.46268336 12.3110577,0 10.5125,0 M10.5125,1.41801586 C11.5312337,1.41801586 12.3571382,2.2433011 12.3571382,3.2628545 C12.3571382,4.28098989 11.5312337,5.10698414 10.5125,5.10698414 C9.4937663,5.10698414 8.6678618,4.28098989 8.6678618,3.2628545 C8.6678618,2.2433011 9.4937663,1.41801586 10.5125,1.41801586" id="Fill-3" fill="#010202"></path>
                        <path d="M13.775,25.3746298 C13.775,27.3761362 12.3145572,29 10.5121667,29 C8.71044284,29 7.25,27.3761362 7.25,25.3746298 C7.25,23.3731233 8.71044284,21.75 10.5121667,21.75 C12.3145572,21.75 13.775,23.3731233 13.775,25.3746298" id="Fill-5" fill="#FEFEFE"></path>
                        <path d="M13.775,25.3746298 C13.775,27.3761362 12.3145572,29 10.5121667,29 C8.71044284,29 7.25,27.3761362 7.25,25.3746298 C7.25,23.3731233 8.71044284,21.75 10.5121667,21.75 C12.3145572,21.75 13.775,23.3731233 13.775,25.3746298 Z" id="Stroke-7" stroke="#010202" stroke-width="1.60000002" stroke-linecap="round" stroke-linejoin="round"></path>
                        <path d="M19.8026665,19.3635247 C18.6166239,16.5106173 17.769249,8.20279977 17.769249,8.20279977 C16.3658945,2.08323638 7.27478232,0.873441472 4.5252236,6.61769587 C4.28321728,7.12300015 4.10541671,7.65765822 3.98053298,8.20279977 C3.98053298,8.20279977 3.13315807,16.5106173 1.94711542,19.3635247 C1.94711542,19.3635247 -0.678970689,21.8816594 0.168404222,23.5597169 C0.168404222,23.5597169 -0.000929649052,24.65 2.79519589,24.65 L11.5843293,24.65 L18.9559972,24.65 C21.7514171,24.65 21.5813777,23.5597169 21.5813777,23.5597169 C22.4294582,21.8816594 19.8026665,19.3635247 19.8026665,19.3635247" id="Fill-9" fill="#FEFEFE"></path>
                        <path d="M19.8026665,19.3635247 C18.6166239,16.5106173 17.769249,8.20279977 17.769249,8.20279977 C16.3658945,2.08323638 7.27478232,0.873441472 4.5252236,6.61769587 C4.28321728,7.12300015 4.10541671,7.65765822 3.98053298,8.20279977 C3.98053298,8.20279977 3.13315807,16.5106173 1.94711542,19.3635247 C1.94711542,19.3635247 -0.678970689,21.8816594 0.168404222,23.5597169 C0.168404222,23.5597169 -0.000929649052,24.65 2.79519589,24.65 L11.5843293,24.65 L18.9559972,24.65 C21.7514171,24.65 21.5813777,23.5597169 21.5813777,23.5597169 C22.4294582,21.8816594 19.8026665,19.3635247 19.8026665,19.3635247 Z" id="Stroke-11" stroke="#010202" stroke-width="1.60000002" stroke-linecap="round" stroke-linejoin="round"></path>
                    </g>
                </g>
            </g>
        </g>
    </g>
</svg>