<svg xmlns="http://www.w3.org/2000/svg" width="25" height="23" viewBox="0 0 25 23">
    <path fill="#595959" fill-rule="nonzero" d="M12.5 0a.67.67 0 0 0-.605.363L8.555 6.89a.672.672 0 0 1-.508.356L.579 8.294c-.554.078-.775.734-.374 1.11l5.404 5.082c.159.15.232.365.194.576l-1.276 7.176c-.075.42.272.762.665.762a.692.692 0 0 0 .314-.076l6.68-3.388a.693.693 0 0 1 .628 0l6.68 3.388c.103.052.21.076.314.076.393 0 .74-.342.665-.762l-1.276-7.176a.637.637 0 0 1 .194-.576l5.404-5.082c.401-.376.18-1.032-.374-1.11l-7.468-1.047a.672.672 0 0 1-.508-.356L13.105.363A.67.67 0 0 0 12.5 0m0 2.446l2.598 5.078a2.168 2.168 0 0 0 1.638 1.146l5.83.817-4.225 3.973a2.035 2.035 0 0 0-.622 1.844l.995 5.598-5.199-2.636a2.255 2.255 0 0 0-2.03 0l-5.199 2.636.995-5.598a2.036 2.036 0 0 0-.622-1.844L2.434 9.487l5.83-.817c.71-.1 1.322-.528 1.638-1.146L12.5 2.446"/>
</svg>
