<svg xmlns="http://www.w3.org/2000/svg" width="25" height="23" viewBox="0 0 25 23">
    <path fill="#595959" fill-rule="nonzero" d="M24.795 9.405c.401-.377.18-1.033-.374-1.11l-7.468-1.048a.672.672 0 0 1-.508-.356L13.105.363c-.248-.484-.963-.484-1.21 0L8.555 6.89a.676.676 0 0 1-.508.356L.578 8.294c-.553.078-.774.734-.374 1.11l5.405 5.082c.158.15.231.365.194.576l-1.276 7.176c-.095.531.484.937.98.686l6.679-3.388c.197-.1.432-.1.628 0l6.68 3.388c.495.25 1.073-.155.979-.686l-1.276-7.176a.638.638 0 0 1 .194-.576l5.404-5.081z"/>
</svg>
