<svg xmlns="http://www.w3.org/2000/svg" width="25" height="25" viewBox="0 0 25 25">
    <path fill="#1A1A1A" fill-rule="nonzero" d="M18.781 10.131c.007.125.007.256.007.388 0 3.981-3.032 8.575-8.575 8.575-1.7 0-3.288-.5-4.607-1.363a6.058 6.058 0 0 0 4.462-1.244 3.008 3.008 0 0 1-2.811-2.093 3.004 3.004 0 0 0 1.362-.05A3.017 3.017 0 0 1 6.2 11.387v-.037a2.96 2.96 0 0 0 1.362.375A3.001 3.001 0 0 1 6.22 9.219c0-.55.15-1.069.406-1.513a8.55 8.55 0 0 0 6.213 3.15 3.014 3.014 0 0 1 5.131-2.75 6.1 6.1 0 0 0 1.912-.731 3.011 3.011 0 0 1-1.324 1.669 6.118 6.118 0 0 0 1.73-.475 6.174 6.174 0 0 1-1.506 1.562M12.5 0C5.597 0 0 5.596 0 12.5 0 19.403 5.597 25 12.5 25S25 19.403 25 12.5C25 5.596 19.403 0 12.5 0"/>
</svg>
