<?xml version="1.0" encoding="UTF-8"?>
<svg width="35px" height="33px" viewBox="0 0 35 33" version="1.1" xmlns="http://www.w3.org/2000/svg" xmlns:xlink="http://www.w3.org/1999/xlink">
    <!-- Generator: Sketch 51.2 (57519) - http://www.bohemiancoding.com/sketch -->
    <title>Group 7</title>
    <desc>Created with Sketch.</desc>
    <defs></defs>
    <g id="Page-1" stroke="none" stroke-width="1" fill="none" fill-rule="evenodd">
        <g id="My-Account_Account_Overview_-MPR-Desktop" transform="translate(-1170.000000, -1094.000000)">
            <g id="Group-7" transform="translate(1170.000000, 1094.000000)">
                <rect id="Rectangle-6-Copy-2" stroke="#000000" fill="#FFFFFF" x="0.5" y="0.5" width="34" height="32"></rect>
                <path d="M30.7142857,8.83248252 C29.7691108,9.2108527 28.7512021,9.46681865 27.6849255,9.58167516 C28.7748406,8.99262532 29.6112786,8.06031857 30.0040408,6.94916381 C28.9843138,7.49424002 27.8565772,7.89000276 26.6528338,8.10297956 C25.6927484,7.17789236 24.3206265,6.6 22.8023097,6.6 C19.8907782,6.6 17.5283864,8.73206511 17.5283864,11.3599822 C17.5283864,11.7337581 17.5734813,12.0960484 17.6643985,12.4438996 C13.2800087,12.2453619 9.39384511,10.3518701 6.79034096,7.46962791 C6.33611877,8.17517508 6.07609565,8.99262532 6.07609565,9.86520668 C6.07609565,11.5152026 7.00745117,12.9728959 8.42321338,13.8274283 C7.5587729,13.8034725 6.7445187,13.5872141 6.03245541,13.2327997 L6.03245541,13.2915406 C6.03245541,15.598844 7.85043519,17.5228547 10.265559,17.9589813 C9.82261049,18.0708844 9.35711457,18.1266718 8.87488989,18.1266718 C8.53522333,18.1266718 8.20355749,18.0981218 7.88316537,18.0423343 C8.55377044,19.9328726 10.5015799,21.3101663 12.8105124,21.3465922 C11.0048974,22.6241248 8.72978608,23.3848031 6.25865734,23.3848031 C5.8328013,23.3848031 5.41203663,23.3638008 5,23.3191708 C7.33475299,24.6685708 10.1080904,25.4571429 13.0869007,25.4571429 C22.792127,25.4571429 28.0969622,18.2044461 28.0969622,11.9129343 C28.0969622,11.7058644 28.0922345,11.499779 28.0827791,11.2969752 C29.1137798,10.6252287 30.0091321,9.78677609 30.7142857,8.83248252" id="01-Twitter" fill="#231F20"></path>
            </g>
        </g>
    </g>
</svg>