<svg xmlns="http://www.w3.org/2000/svg" width="47" height="30" viewBox="0 0 47 30">
    <g fill="none" fill-rule="evenodd">
        <rect width="46" height="29" x=".5" y=".5" fill="#FFF" stroke="#D8D8D8" rx="5"/>
        <g fill="#029CDE" fill-rule="nonzero">
            <path d="M11.73 12c.236.394.342.8.342 1.312 0 1.635-1.377 3.76-2.495 5.25H7.024L6 12.358l2.236-.215.541 4.415c.506-.835 1.13-2.148 1.13-3.042 0-.49-.083-.824-.212-1.098L11.73 12zM14.815 14.843c.425 0 1.495-.2 1.495-.827 0-.3-.207-.45-.45-.45-.425 0-.984.525-1.045 1.277zm-.048 1.24c0 .764.412 1.064.96 1.064.595 0 1.166-.15 1.907-.538l-.279 1.953c-.522.263-1.337.438-2.127.438-2.005 0-2.722-1.252-2.722-2.817 0-2.029 1.167-4.183 3.573-4.183 1.325 0 2.066.764 2.066 1.829 0 1.715-2.139 2.241-3.378 2.253zM25.084 13.437a5.9 5.9 0 0 1-.073.814l-.695 4.312h-2.253l.633-3.953c.012-.107.049-.323.049-.442 0-.288-.183-.36-.403-.36-.292 0-.584.132-.779.228l-.718 4.526h-2.267l1.036-6.454h1.961l.025.515c.463-.3 1.072-.623 1.936-.623 1.146 0 1.548.575 1.548 1.437zM31.402 12.707c.646-.455 1.256-.707 2.097-.707 1.158 0 1.561.575 1.561 1.438 0 .239-.037.586-.073.813l-.695 4.311h-2.256l.646-4.035c.012-.108.037-.24.037-.323 0-.324-.183-.395-.403-.395-.28 0-.56.12-.769.227l-.719 4.527h-2.256l.647-4.036c.011-.108.036-.24.036-.323 0-.324-.183-.395-.403-.395-.293 0-.585.131-.78.227l-.72 4.526h-2.268l1.037-6.454h1.94l.06.539C28.572 12.324 29.181 12 30 12c.707 0 1.17.3 1.403.707zM39.737 14.695c0-.549-.13-.923-.523-.923-.87 0-1.048 1.61-1.048 2.433 0 .624.167 1.01.56 1.01.82 0 1.011-1.696 1.011-2.52zm-3.81 1.41C35.928 13.985 37 12 39.465 12 41.32 12 42 13.148 42 14.733 42 16.829 40.94 19 38.416 19c-1.87 0-2.488-1.285-2.488-2.895z"/>
        </g>
    </g>
</svg>
