<?xml version="1.0" encoding="UTF-8"?>
<svg width="47px" height="30px" viewBox="0 0 47 30" version="1.1" xmlns="http://www.w3.org/2000/svg" xmlns:xlink="http://www.w3.org/1999/xlink">
    <!-- Generator: Sketch 55.2 (78181) - https://sketchapp.com -->
    <title>icon/credit-card/venmo</title>
    <desc>Created with Sketch.</desc>
    <g id="icon/credit-card/venmo" stroke="none" stroke-width="1" fill="none" fill-rule="evenodd">
        <g id="NEW/icon/credit-card/logo/venmo-blue" transform="translate(6.000000, 12.000000)" fill="#029CDE">
            <g id="venmo_logo_white">
                <path d="M5.73076293,0 C5.9661628,0.393969246 6.07228916,0.799758182 6.07228916,1.31235302 C6.07228916,2.94726721 4.69500351,5.07113686 3.57717144,6.5625 L1.02397431,6.5625 L0,0.357958999 L2.23560372,0.14287739 L2.7769932,4.55780712 C3.28284606,3.72271235 3.90709387,2.41035933 3.90709387,1.51561494 C3.90709387,1.02586334 3.82429597,0.692278619 3.69490159,0.417608626 L5.73076293,0 Z" id="Path" fill-rule="nonzero"></path>
                <path d="M8.81535492,2.84256097 C9.24017494,2.84256097 10.3096829,2.64241773 10.3096829,2.01640774 C10.3096829,1.71580726 10.1032954,1.56586051 9.86008638,1.56586051 C9.43457987,1.56586051 8.87620398,2.09134898 8.81535492,2.84256097 Z M8.76667568,4.08236925 C8.76667568,4.84675701 9.17938829,5.14665051 9.72653051,5.14665051 C10.322352,5.14665051 10.8928353,4.99670376 11.63432,4.60862898 L11.3550384,6.56172874 C10.8326103,6.82460151 10.0184187,7 9.22812995,7 C7.22348125,7 6.5060241,5.74798002 6.5060241,4.18276223 C6.5060241,2.15407852 7.67307775,0 10.079143,0 C11.4038425,0 12.1445783,0.764323491 12.1445783,1.82860475 C12.1447031,3.54434773 10.0064362,4.06996474 8.76667568,4.08236925 Z" id="Shape" fill-rule="nonzero"></path>
                <path d="M19.0843373,1.43745611 C19.0843373,1.67691944 19.0473621,2.02425191 19.0105745,2.25123807 L18.3161147,6.5625 L16.0626242,6.5625 L16.6960841,2.61043307 C16.7080964,2.50324004 16.7450091,2.28744031 16.7450091,2.16770864 C16.7450091,1.88024201 16.5621972,1.80851364 16.3424101,1.80851364 C16.0504868,1.80851364 15.7578752,1.94010784 15.5629886,2.03617591 L14.8445043,6.5625 L12.5783133,6.5625 L13.6136213,0.107869154 L15.5750008,0.107869154 L15.5998387,0.623059515 C16.0625616,0.32373035 16.6718718,0 17.5363804,0 C18.6817384,-0.000122908082 19.0843373,0.574871822 19.0843373,1.43745611 Z" id="Path" fill-rule="nonzero"></path>
                <path d="M25.4015516,0.706569076 C26.0476595,0.251994886 26.6577542,0 27.4989597,0 C28.6573317,0 29.060241,0.574978576 29.060241,1.43753863 C29.060241,1.67699524 29.0233509,2.02431795 28.9865235,2.25129773 L28.2921266,6.56237708 L26.0355716,6.56237708 L26.6818048,2.52695555 C26.6937048,2.41908945 26.7186948,2.28749895 26.7186948,2.20403332 C26.7186948,1.88037355 26.5356225,1.80858574 26.3156602,1.80858574 C26.0354463,1.80858574 25.7553577,1.92831404 25.5474207,2.03624161 L24.8282843,6.5625 L22.5722929,6.5625 L23.2185261,2.52701701 C23.2304261,2.41915091 23.2546645,2.28756041 23.2546645,2.20409479 C23.2546645,1.88043501 23.0715296,1.8086472 22.8523189,1.8086472 C22.5594534,1.8086472 22.2671516,1.9402377 22.0720541,2.03630307 L21.3522287,6.5625 L19.0843373,6.5625 L20.1206403,0.10805049 L22.0601541,0.10805049 L22.1210946,0.646889312 C22.5722929,0.323967084 23.1817613,0.00024584867 23.9987909,0.00024584867 C24.7062152,0 25.1693761,0.299382217 25.4015516,0.706569076 Z" id="Path" fill-rule="nonzero"></path>
                <path d="M33.7373298,2.69530771 C33.7373298,2.14629438 33.6062314,1.77198167 33.21367,1.77198167 C32.3444706,1.77198167 32.1659835,3.38136624 32.1659835,4.2046621 C32.1659835,4.82924241 32.3328527,5.21578673 32.7252918,5.21578673 C33.546858,5.21578673 33.7373298,3.51853953 33.7373298,2.69530771 Z M29.9277108,4.10527231 C29.9277108,1.98446577 30.9989999,0 33.4638209,0 C35.3210889,0 36,1.14816983 36,2.73296312 C36,4.82917837 34.9402676,7 32.4160121,7 C30.5467594,7 29.9277108,5.71472092 29.9277108,4.10527231 Z" id="Shape" fill-rule="nonzero"></path>
            </g>
        </g>
    </g>
</svg>