<?xml version="1.0" encoding="UTF-8"?>
<svg width="47px" height="30px" viewBox="0 0 47 30" version="1.1" xmlns="http://www.w3.org/2000/svg" xmlns:xlink="http://www.w3.org/1999/xlink">
    <!-- Generator: Sketch 55.2 (78181) - https://sketchapp.com -->
    <title>icon/credit-card/visa</title>
    <desc>Created with Sketch.</desc>
    <g id="icon/credit-card/visa" stroke="none" stroke-width="1" fill="none" fill-rule="evenodd">
        <g id="NEW/icon/credit-card/logo/visa" transform="translate(8.000000, 10.000000)" fill="#182E66">
            <path d="M14.0322581,-5.32907052e-15 L12.33843,9.35483871 L10.2903226,9.35483871 L11.9843854,-5.32907052e-15 L14.0322581,-5.32907052e-15 Z M24.3225806,5.61290323 L25.5101418,2.80645161 L26.1935484,5.61290323 L24.3225806,5.61290323 Z M26.8288597,9.35483871 L29,9.35483871 L27.1054972,-5.32907052e-15 L25.101254,-5.32907052e-15 C24.6511297,-5.32907052e-15 24.2710725,0.270097761 24.1021583,0.686336712 L20.5806452,9.35483871 L23.0452336,9.35483871 L23.5347623,7.95790086 L26.5461704,7.95790086 L26.8288597,9.35483871 Z M21.0617698,6.25922242 C21.0722148,3.87112959 17.5855477,3.73957528 17.6098253,2.6727919 C17.6170239,2.34813036 17.9426551,2.00308528 18.6544704,1.9147119 C19.0080492,1.87086046 19.9801436,1.8372008 21.0839302,2.31983479 L21.516129,0.401233926 C20.9234436,0.196593895 20.1603911,-5.32907052e-15 19.2117274,-5.32907052e-15 C16.776904,-5.32907052e-15 15.0627883,1.22998582 15.0483911,2.99115064 C15.0330058,4.29355167 16.271731,5.02011765 17.2054329,5.45326791 C18.1649651,5.89687815 18.487491,6.18090671 18.4833976,6.57744705 C18.4770459,7.18493024 17.7176633,7.45246422 17.0093767,7.4630583 C15.7705103,7.48169851 15.0517786,7.14537007 14.4787129,6.89164862 L14.0322581,8.87408215 C14.6078644,9.12538976 15.6701532,9.34357412 16.7723872,9.35483871 C19.3600752,9.35483871 21.0533009,8.13987234 21.0617698,6.25922242 L21.0617698,6.25922242 Z M11.2258065,-5.32907052e-15 L7.35511247,9.35483871 L4.82940183,9.35483871 L2.92485285,1.88902048 C2.80905233,1.42910555 2.70858238,1.2609184 2.35666378,1.06721892 C1.78313638,0.75164269 0.834557649,0.455478 0,0.271761607 L0.0570789798,-5.32907052e-15 L4.12200575,-5.32907052e-15 C4.64009673,-5.32907052e-15 5.10617329,0.349269127 5.22375325,0.953661395 L6.2298216,6.36740219 L8.7159739,-5.32907052e-15 L11.2258065,-5.32907052e-15 L11.2258065,-5.32907052e-15 Z" id="Fill-1"></path>
        </g>
    </g>
</svg>