<svg xmlns="http://www.w3.org/2000/svg" width="47" height="30" viewBox="0 0 47 30">
    <g fill="none" fill-rule="evenodd">
        <rect width="46" height="29" x=".5" y=".5" fill="#FFF" stroke="#D8D8D8" rx="5"/>
        <path fill="#182E66" d="M22.032 10l-1.694 9.355H18.29L19.984 10h2.048zm10.29 5.613l1.188-2.807.684 2.807h-1.871zm2.507 3.742H37L35.105 10h-2.004c-.45 0-.83.27-.999.686l-3.521 8.669h2.464l.49-1.397h3.011l.283 1.397zm-5.767-3.096c.01-2.388-3.476-2.52-3.452-3.586.007-.325.333-.67 1.044-.758.354-.044 1.326-.078 2.43.405l.432-1.919A6.922 6.922 0 0 0 27.212 10c-2.435 0-4.15 1.23-4.164 2.991-.015 1.303 1.224 2.03 2.157 2.462.96.444 1.282.728 1.278 1.124-.006.608-.765.875-1.474.886-1.238.019-1.957-.318-2.53-.571l-.447 1.982c.576.251 1.638.47 2.74.48 2.588 0 4.281-1.214 4.29-3.095zM19.226 10l-3.87 9.355h-2.527l-1.904-7.466c-.116-.46-.216-.628-.568-.822-.574-.315-1.522-.612-2.357-.795L8.057 10h4.065c.518 0 .984.35 1.102.954l1.006 5.413L16.716 10h2.51z"/>
    </g>
</svg>
