<?xml version="1.0" encoding="UTF-8"?>
<svg width="23px" height="25px" viewBox="0 0 23 25" version="1.1" xmlns="http://www.w3.org/2000/svg" xmlns:xlink="http://www.w3.org/1999/xlink">
    <!-- Generator: Sketch 58 (84663) - https://sketch.com -->
    <title>Fill 1@1.5x</title>
    <desc>Created with Sketch.</desc>
    <g id="Symbols" stroke="none" stroke-width="1" fill="none" fill-rule="evenodd">
        <g id="icons/empty-bag-copy" fill="#FFFFFF" fill-rule="nonzero">
            <path d="M22.9889317,24.105102 L19.9222862,6.24795918 C19.8502201,5.83163265 19.4515562,5.55153061 19.0370479,5.62295918 C18.6199841,5.69438776 18.3393861,6.08979592 18.4109411,6.50714286 L21.3242543,23.4693878 L1.67574566,23.4693878 L4.47968184,7.14285714 L6.13311486,7.14285714 L6.13311486,8.92857143 C6.13311486,9.35102041 6.47657915,9.69387755 6.89977623,9.69387755 C7.32348441,9.69387755 7.6664376,9.35102041 7.6664376,8.92857143 L7.6664376,5.35714286 C7.6664376,3.24693878 9.3863146,1.53061224 11.4997444,1.53061224 C13.6136854,1.53061224 15.3330513,3.24693878 15.3330513,5.35714286 L15.3330513,5.6122449 L11.4997444,5.6122449 C11.0765474,5.6122449 10.7330831,5.95510204 10.7330831,6.37755102 C10.7330831,6.8 11.0765474,7.14285714 11.4997444,7.14285714 L15.3330513,7.14285714 L15.3330513,8.92857143 C15.3330513,9.35102041 15.6765156,9.69387755 16.0997127,9.69387755 C16.5234208,9.69387755 16.866374,9.35102041 16.866374,8.92857143 L16.866374,5.35714286 C16.866374,2.40306122 14.4590573,0 11.4997444,0 C8.54094267,0 6.13311486,2.40306122 6.13311486,5.35714286 L6.13311486,5.6122449 L3.83313075,5.6122449 C3.46002222,5.6122449 3.14109109,5.88061224 3.07771375,6.24795918 L0.0110682735,24.105102 C-0.027264795,24.3280612 0.0350903298,24.5556122 0.18075599,24.7280612 C0.32642165,24.9005102 0.540575726,25 0.766485276,25 L22.2330036,25 C22.4594243,25 22.6735783,24.9005102 22.819244,24.7280612 C22.9649097,24.5556122 23.0272648,24.3280612 22.9889317,24.105102" id="Fill-1"></path>
        </g>
    </g>
</svg>